<svg width="180" height="200" viewBox="0 0 180 200" fill="none" xmlns="http://www.w3.org/2000/svg">
<path d="M46.8936 18.5228C48.6972 17.2975 51.3681 14.6494 53.7476 14.5644C54.2343 14.547 54.4675 14.512 54.8838 14.2345C56.34 13.2637 57.9071 12.4443 59.5936 11.9254C61.814 11.2422 63.5482 9.82579 65.7696 8.95656C68.6973 7.81093 70.892 6.64746 74.0897 6.64746C76.7241 6.64746 79.0167 6.67427 81.5484 7.3072C87.0001 8.67011 87.7977 11.8807 87.7977 17.0384C87.7977 19.9692 88.086 22.8728 88.1275 25.78C88.158 27.9109 88.1275 30.0447 88.1275 32.1759C88.1275 35.547 89.1172 38.8098 89.1172 42.237C89.1172 67.0775 89.1707 92.0649 90.1251 116.88C90.2913 121.201 91.0726 125.706 91.6095 130.001C92.1481 134.31 91.7808 138.579 92.1593 142.885C92.7127 149.18 91.7561 155.27 91.7561 161.522C91.7561 162.964 91.0964 164.457 91.0964 165.994C91.0964 167.988 91.1651 169.994 91.0964 171.987C90.9876 175.143 90.7665 178.285 90.7665 181.48" stroke="#00D9FF" stroke-width="10" stroke-linecap="round"/>
<path d="M66.3565 31.7178C63.978 28.5465 61.4502 24.0057 58.2197 21.8217C56.1471 20.4205 53.2468 19.9416 50.8709 19.3476C49.7701 19.0724 48.1644 18.9967 47.0407 19.201C45.0985 19.5541 43.2468 22.2845 41.8544 23.5443C40.9911 24.3254 39.9986 24.5875 39.1604 25.4503C36.0639 28.6379 33.6992 33.07 33.6992 37.6372C33.6992 40.2248 34.215 42.0794 35.8434 44.0697C36.52 44.8966 38.3551 45.3178 38.6473 45.9023" stroke="#00D9FF" stroke-width="10" stroke-linecap="round"/>
<path d="M60.0886 71.3023C59.3668 67.6332 58.4993 64.0697 57.7429 60.4165C57.2237 57.9094 57.3637 53.7647 54.884 52.243C52.0728 50.518 49.5624 48.491 46.5639 47.075C43.802 45.7708 39.6945 45.9179 36.7777 46.4886C33.3113 47.1668 29.7739 46.7704 26.2767 47.2216C22.5521 47.7022 20.0924 48.1191 17.7001 51.0152C15.9723 53.1067 14.0036 56.3049 13.9065 59.0237C13.8558 60.4448 13.2225 62.1167 12.9902 63.5686C12.7984 64.7673 12.9169 66.0609 12.9169 67.2705C12.9169 70.5678 13.7764 72.7386 15.391 75.6089C15.5093 75.8193 16.5226 77.4115 16.0324 77.5515C14.7848 77.908 13.6306 78.2228 12.4404 78.8893C10.1703 80.1606 6.31949 82.5026 6.31949 85.5051C6.31949 89.2411 5 92.8145 5 96.5008C5 100.567 5.05681 104.073 6.64936 107.845C8.23641 111.604 13.4528 113.749 16.4722 116.165C17.9175 117.321 19.1537 118.318 20.8339 119.134C22.0056 119.703 23.455 119.434 24.6091 119.958C27.2808 121.173 30.4881 121.022 33.369 122.103" stroke="#00D9FF" stroke-width="10" stroke-linecap="round"/>
<path d="M10.2783 115.175C8.71783 118.99 8.62891 124.425 8.62891 128.407C8.62891 131.185 8.98738 132.915 9.94839 135.371C10.6236 137.096 10.9134 138.849 12.4041 139.989C14.0092 141.216 15.5658 142.525 17.2056 143.709C18.2979 144.498 21.8238 146.514 21.8238 147.998C21.8238 149.091 21.4017 149.422 20.9991 150.362C20.1473 152.349 19.5768 154.42 19.5147 156.593C19.4206 159.884 19.2957 163.261 20.5776 166.305C21.0744 167.485 22.3692 167.865 23.1433 168.871C24.0894 170.101 26.0886 170.747 27.4316 171.418C29.4027 172.404 31.5108 174.34 33.6808 174.882C35.1682 175.254 36.9845 175.683 38.3174 176.275C39.8004 176.934 39.0617 179.915 40.2966 181.15C42.3383 183.191 43.9122 185.597 45.428 188.077C45.9159 188.875 46.7899 189.381 47.2239 190.203C47.6048 190.925 47.7881 191.61 48.3785 192.2C49.5066 193.329 50.441 193.755 52.0071 194.161C55.8625 195.161 60.0927 194.674 64.0474 194.674C67.9559 194.674 71.8123 194.254 75.5929 193.282C77.6212 192.76 78.9463 189.342 80.3761 187.912C82.0803 186.208 84.0838 184.504 85.9656 182.964C86.7236 182.344 87.5608 181.929 88.3113 181.315C88.9233 180.814 90.4923 180.71 90.767 180.16" stroke="#00D9FF" stroke-width="10" stroke-linecap="round"/>
<path d="M93.0762 180.49C95.0384 181.611 96.3525 182.284 97.7677 184.119C98.4473 185 99.3648 185.963 100.333 186.501C103.17 188.077 106.608 189.187 109.716 190.075C110.677 190.349 111.217 190.716 112.374 190.716C113.198 190.716 114.023 190.716 114.848 190.716C115.837 190.716 116.827 190.716 117.817 190.716C119.732 190.716 121.284 189.854 123.113 189.397C126.661 188.51 130.283 186.718 133.394 184.852C135.881 183.36 138.804 181.325 140.743 179.171C142.71 176.985 144.774 176.652 147.835 176.532C149.328 176.473 150.918 175.326 152.123 174.479C154.12 173.076 155.81 172.248 157.383 170.282C158.421 168.985 159.276 167.363 160.37 166.159C161.013 165.451 161.69 164.817 161.69 163.832C161.69 162.996 162.118 162.239 162.276 161.431C162.439 160.596 162.217 159.729 162.368 158.902C162.6 157.625 162.679 156.454 162.679 155.09C162.679 153.107 160.175 150.893 161.543 149.152C162.411 148.048 163.49 146.693 164.493 145.689C165.212 144.97 165.572 143.601 166.711 143.544C167.939 143.483 168.269 141.796 168.947 140.832C169.791 139.633 170.688 138.761 171.421 137.442C172.694 135.149 172.575 133.213 172.575 130.679C172.575 128.7 172.575 126.721 172.575 124.742C172.575 123.238 171.699 122.426 171.256 120.985C170.959 120.021 170.226 119.054 169.771 118.144C169.508 117.617 168.973 115.684 168.617 115.505" stroke="#00D9FF" stroke-width="10" stroke-linecap="round"/>
<path d="M148.494 119.793C153.729 119.793 157.551 120.223 162.018 117.741C163.477 116.931 164.625 114.843 165.794 113.709C167.523 112.031 169.546 110.928 171.511 109.567C173.594 108.126 174.23 103.136 174.627 100.991C175.298 97.3651 174.947 94.6788 174.48 90.9479C174.238 89.0101 174.214 87.3282 173.564 85.4867C173.298 84.732 172.809 83.0822 172.244 82.5178C171.058 81.3309 169.627 80.7637 168.286 79.8055C167.955 79.5694 165.995 78.5435 165.977 78.2295C165.814 75.4538 166.839 72.2373 167.443 69.5612C168.027 66.9744 169.009 64.4157 168.451 61.7359C167.942 59.294 166.977 56.6964 165.299 54.8086C161.87 50.9515 157.618 47.3677 153.295 44.6009C150.013 42.5005 147.045 42.2734 143.271 42.2734C139.004 42.2734 135.394 45.0109 132 47.3681C127.994 50.1501 124.124 52.9813 120.968 56.7695C118.992 59.14 116.496 62.2615 116.496 65.5111C116.496 66.256 117.075 70.1878 116.826 70.3126" stroke="#00D9FF" stroke-width="10" stroke-linecap="round"/>
<path d="M145.855 41.6141C145.855 40.2501 146.385 38.0121 146.112 36.8493C145.55 34.46 144.618 32.1557 143.546 29.8853C141.546 25.6489 138.693 22.6244 134.126 20.6673C131.352 19.4781 127.259 19.657 124.304 19.8609C122.784 19.9657 121.565 20.9516 120.198 21.4919C119.297 21.8483 118.361 21.9365 117.651 22.6465C116.773 23.5244 116.915 25.1953 116.313 26.3117C115.935 27.0139 115.223 28.2541 115.177 29.079C115.124 30.0266 114.188 30.1535 114.188 31.0582" stroke="#00D9FF" stroke-width="10" stroke-linecap="round"/>
<path d="M90.4365 13.5748C94.1181 10.4645 98.7305 7.37342 103.118 5.49294C107.228 3.73154 112.163 7.13032 115.855 8.79166C120.693 10.9689 125.592 13.1228 130.351 15.6273C132.319 16.6629 134.066 18.2784 135.776 19.6774C137.09 20.7531 137.398 22.7059 138.928 23.471" stroke="#00D9FF" stroke-width="10" stroke-linecap="round"/>
<path d="M89.7773 59.4274C89.9284 55.3494 93.2186 50.5303 96.0449 47.9551C97.1535 46.9451 98.242 45.7234 99.6735 45.5727C100.475 45.4884 101 44.913 101.909 44.913C102.508 44.913 103.107 44.913 103.705 44.913C104.389 44.913 106.278 44.5976 106.601 45.2429" stroke="#00D9FF" stroke-width="10" stroke-linecap="round"/>
<path d="M88.7876 68.0037C86.4191 65.3036 82.546 61.4062 78.7265 61.4062C76.9772 61.4062 75.6331 62.066 73.9434 62.066" stroke="#00D9FF" stroke-width="10" stroke-linecap="round"/>
<path d="M36.0078 68.9937C36.9293 75.1371 39.684 80.157 43.1184 85.194C46.499 90.1523 49.057 94.3938 55.5436 94.3938C60.4409 94.3938 65.3018 95.3978 70.1312 93.899C72.7111 93.0983 75.321 92.1165 77.5717 90.5819C78.7653 89.7681 79.5282 88.4788 80.5405 87.4665C80.8912 87.1158 81.2003 86.31 81.2003 86.4769" stroke="#00D9FF" stroke-width="10" stroke-linecap="round"/>
<path d="M63.0571 95.7129C60.3729 99.5244 57.8963 103.692 54.4804 106.929C53.5652 107.796 51.3165 108.104 50.1188 108.578C48.9169 109.053 47.9356 109.129 46.7468 109.714C45.1957 110.478 43.7255 111.547 41.9453 111.547" stroke="#00D9FF" stroke-width="10" stroke-linecap="round"/>
<path d="M34.3584 150.142C38.3914 150.142 41.82 148.719 45.9039 149.647C47.4315 149.995 48.9176 150.713 50.4488 151.205C51.4521 151.528 52.8318 151.664 53.6559 152.305C60.783 157.848 60.7482 167.947 60.7482 176.202" stroke="#00D9FF" stroke-width="10" stroke-linecap="round"/>
<path d="M68.3351 123.092C65.0149 123.12 63.3001 123.074 60.6015 124.522C57.6949 126.081 54.9188 127.991 52.0248 129.506C49.8093 130.667 47.6249 132.806 46.3986 134.986C44.12 139.037 43.5947 143.517 43.5947 148.163" stroke="#00D9FF" stroke-width="10" stroke-linecap="round"/>
<path d="M91.0963 163.997C91.0152 163.267 90.5598 162.374 90.2166 161.724C89.158 159.72 87.9391 157.211 86.3131 155.585C85.2271 154.499 84.2852 153.227 83.1794 152.121C82.3765 151.319 81.4227 151.024 80.5587 150.16C77.144 146.746 71.4393 147.503 67.0156 147.503" stroke="#00D9FF" stroke-width="10" stroke-linecap="round"/>
<path d="M109.239 169.274C110.155 165.062 111.059 161.793 113.528 158.315C116.169 154.593 118.969 151.584 122.617 148.895C125.472 146.792 128.516 145.378 131.671 143.801C134.389 142.442 136.561 142.555 139.587 142.555" stroke="#00D9FF" stroke-width="10" stroke-linecap="round"/>
<path d="M125.403 145.524C125.403 143.883 125.345 142.353 125.806 140.759C126.287 139.095 126.82 137.38 126.722 135.628C126.586 133.177 122.965 130.822 121.774 128.865C119.642 125.362 116.413 122.093 112.391 120.967C110.084 120.321 107.498 119.012 105.134 118.823C103.1 118.66 101.531 119.794 99.6729 119.794" stroke="#00D9FF" stroke-width="10" stroke-linecap="round"/>
<path d="M108.25 82.1884C109.986 85.6604 110.624 86.7966 114.518 87.7962C118.049 88.7029 121.481 89.0648 125.073 89.4639C126.901 89.667 128.449 90.1054 130.351 90.1054C132.481 90.1054 134.511 89.8926 136.619 89.7755C138.091 89.6937 139.564 88.1331 140.797 87.3931C143.428 85.815 145.063 84.3007 147.175 82.1884C149.921 79.4425 152.453 74.7037 152.453 70.8078C152.453 69.698 153.45 68.5888 153.937 67.6557C154.277 67.0051 154.611 65.8944 155.238 65.4383C155.362 65.3485 155.809 65.365 155.422 65.365" stroke="#00D9FF" stroke-width="10" stroke-linecap="round"/>
<path d="M125.403 89.1157C126.053 93.2427 127.157 96.8714 128.702 100.735C129.46 102.63 132.198 104.663 133.815 105.756C136.793 107.768 139.612 109.466 142.887 110.557" stroke="#00D9FF" stroke-width="10" stroke-linecap="round"/>
</svg>
