<svg width="171" height="131" viewBox="0 0 171 131" fill="none" xmlns="http://www.w3.org/2000/svg">
<path d="M71.6348 7.90781C89.1462 6.32537 108.535 3.73194 126.121 6.14129C132.067 6.95585 136.873 7.2216 141.926 11.0544C152.196 18.8435 156.405 31.6389 162.619 42.6861C166.689 49.9237 166.663 55.951 164.698 64.1052C162.068 75.0221 155.088 79.2055 144.838 81.2183C127.213 84.6791 108.151 82.1525 90.6634 79.0102C87.9488 78.5224 73.4747 79.4855 77.2498 75.4771" stroke="#00D9FF" stroke-width="10" stroke-linecap="round"/>
<path d="M110.003 44.6739C91.0926 34.0012 69.8057 29.7689 48.3421 29.7689C42.554 29.7689 36.629 29.5983 30.9772 31.2042C19.9499 34.3375 11.2333 47.8111 7.9973 58.8061C4.90292 69.32 5.45934 74.1406 9.14109 84.4206C13.8009 97.4313 22.0967 103.627 31.8611 111.691C35.2049 114.453 39.4763 114.608 43.351 116.218C47.8575 118.09 52.7389 119.741 57.5965 120.137C66.0496 120.828 74.8025 120.193 83.2799 120.193C88.6982 120.193 93.5031 121.503 98.7732 122.125C101.636 122.462 108.603 122.188 110.003 125.161" stroke="#00D9FF" stroke-width="10" stroke-linecap="round"/>
</svg>
