<svg width="171" height="111" viewBox="0 0 171 111" fill="none" xmlns="http://www.w3.org/2000/svg">
<path d="M71.6348 7.44995C89.1462 6.13125 108.535 3.97006 126.121 5.97785C132.067 6.65665 136.873 6.8781 141.926 10.0721C152.196 16.563 156.405 27.2259 162.619 36.4319C166.689 42.4632 166.663 47.4859 164.698 54.2811C162.068 63.3786 155.088 66.8648 144.838 68.5421C127.213 71.4261 108.151 69.3205 90.6634 66.702C87.9488 66.2955 73.4747 67.0981 77.2498 63.7578" stroke="#00D9FF" stroke-width="10" stroke-linecap="round"/>
<path d="M110.003 38.0883C91.0926 29.1943 69.8057 25.6675 48.3421 25.6675C42.554 25.6675 36.629 25.5253 30.9772 26.8635C19.9499 29.4746 11.2333 40.7026 7.9973 49.8651C4.90292 58.6267 5.45934 62.6439 9.14109 71.2105C13.8009 82.0528 22.0967 87.2162 31.8611 93.9361C35.2049 96.2373 39.4763 96.3668 43.351 97.7083C47.8575 99.2687 52.7389 100.644 57.5965 100.975C66.0496 101.55 74.8025 101.021 83.2799 101.021C88.6982 101.021 93.5031 102.113 98.7732 102.631C101.636 102.912 108.603 102.683 110.003 105.161" stroke="#00D9FF" stroke-width="10" stroke-linecap="round"/>
</svg>
