<svg width="162" height="162" viewBox="0 0 162 162" fill="none" xmlns="http://www.w3.org/2000/svg">
<path d="M1 70.2182C13.354 64.4102 27.666 63.9462 40.998 70.2182H41.004C54.338 76.4882 68.646 76.0242 81 70.2182C93.36 64.4102 107.67 63.9462 120.994 70.2182H121.008C134.334 76.4882 148.646 76.0242 161 70.2182V48.6561C148.646 54.4641 134.334 54.9281 121.008 48.6561H120.994C107.67 42.3861 93.36 42.8501 81 48.6561C68.646 54.4641 54.336 54.9281 41.004 48.6561H40.998C27.664 42.3861 13.354 42.8501 1 48.6561V70.2182Z" fill="#00d9ff" stroke="#00d9ff" stroke-width="2" stroke-miterlimit="10" stroke-linecap="round" stroke-linejoin="round"/>
<path d="M1 27.0977C13.354 21.2877 27.666 20.8277 40.998 27.0977H41.004C54.338 33.3697 68.646 32.9057 81 27.0977C93.36 21.2877 107.67 20.8277 120.994 27.0977H121.008C134.334 33.3697 148.646 32.9057 161 27.0977V5.53167C148.646 11.3377 134.334 11.8017 121.008 5.53167H120.994C107.67 -0.74033 93.36 -0.27633 81 5.53167C68.646 11.3377 54.336 11.8017 41.004 5.53167H40.998C27.664 -0.74033 13.354 -0.27633 1 5.53167V27.0977Z" fill="#00d9ff" stroke="#00d9ff" stroke-width="2" stroke-miterlimit="10" stroke-linecap="round" stroke-linejoin="round"/>
<path d="M1 156.468C13.354 150.66 27.666 150.198 40.998 156.468H41.004C54.338 162.738 68.646 162.276 81 156.468C93.36 150.66 107.67 150.198 120.994 156.468H121.008C134.334 162.738 148.646 162.276 161 156.468V134.91C148.646 140.718 134.334 141.18 121.008 134.91H120.994C107.67 128.64 93.36 129.102 81 134.91C68.646 140.718 54.336 141.18 41.004 134.91H40.998C27.664 128.64 13.354 129.102 1 134.91V156.468Z" fill="#00d9ff" stroke="#00d9ff" stroke-width="2" stroke-miterlimit="10" stroke-linecap="round" stroke-linejoin="round"/>
<path d="M1 113.35C13.354 107.54 27.666 107.076 40.998 113.35H41.004C54.338 119.622 68.646 119.16 81 113.35C93.36 107.54 107.67 107.076 120.994 113.35H121.008C134.334 119.622 148.646 119.16 161 113.35V91.7817C148.646 97.5877 134.334 98.0517 121.008 91.7817H120.994C107.67 85.5097 93.36 85.9737 81 91.7817C68.646 97.5877 54.336 98.0517 41.004 91.7817H40.998C27.664 85.5097 13.354 85.9737 1 91.7817V113.35Z" fill="#00d9ff" stroke="#00d9ff" stroke-width="2" stroke-miterlimit="10" stroke-linecap="round" stroke-linejoin="round"/>
</svg>
