<svg width="160" height="160" viewBox="0 0 160 160" fill="none" xmlns="http://www.w3.org/2000/svg">
<path d="M40 13.334H104.492C127.786 13.334 146.666 32.222 146.666 55.514C146.666 78.804 127.788 97.682 104.492 97.682H40V111.016H104.492C135.15 111.016 160 86.166 160 55.514C160 24.858 135.15 0 104.492 0H40V13.334Z" fill="#00d9ff"/>
<path d="M120 146.666H55.508C32.214 146.666 13.334 127.774 13.334 104.486C13.334 81.1964 32.212 62.3184 55.508 62.3184H120V48.9844H55.508C24.85 48.9844 0 73.8344 0 104.486C0 135.142 24.85 160 55.508 160H120V146.666Z" fill="#00d9ff"/>
</svg>
