<svg width="170" height="119" viewBox="0 0 170 119" fill="none" xmlns="http://www.w3.org/2000/svg">
<path d="M5 17.9737C15.1248 14.9335 30.5965 10.1435 41.2638 7.42586C45.842 6.2595 53.3387 3.70723 58.3333 5.79511C63.4771 7.94533 67.6754 11.9128 72.5697 14.5387C78.6791 17.8166 84.0052 19.4031 90.9141 20.4719C115.753 24.3144 140.572 20.2623 165 15.4755" stroke="#00D9FF" stroke-width="10" stroke-linecap="round"/>
<path d="M5 52C21.2021 43.7369 36.0669 36.7138 54.5238 34.2906C68.4068 32.468 78.2269 39.6352 90.3968 44.1733C100.954 48.1101 113.973 43.6745 125.159 44.7143C133.117 45.4541 140.251 45.7557 147.857 43.1633C153.764 41.1501 159.49 38.5519 165 35.7694" stroke="#00D9FF" stroke-width="10" stroke-linecap="round"/>
<path d="M5 82.3249C10.7549 78.1252 17.7306 74.9456 24.5479 72.4357C35.2503 68.4953 43.5381 68.1664 55.2549 68.9535C65.174 69.6199 75.047 70.4922 84.4998 73.4107C88.3082 74.5865 91.7342 76.5937 95.4666 77.9723C106.237 81.9503 114.324 85.3224 125.75 80.9321C140.419 75.2964 152.195 64.2768 165 56" stroke="#00D9FF" stroke-width="10" stroke-linecap="round"/>
<path d="M5 113.267C10.8322 109.849 15.8891 106.209 22.4975 103.952C30.9373 101.07 39.539 100.556 48.4182 100.074C57.551 99.579 66.719 99.0593 75.8705 99.0593C81.1284 99.0593 87.1332 99.1309 91.8747 101.633C95.2689 103.423 98.3818 106.775 101.179 109.353C112.21 119.521 132.342 110.582 143.525 105.438C149.768 102.566 155.899 99.5121 162.439 97.2834C163.954 96.767 165.419 96.5057 164.889 95" stroke="#00D9FF" stroke-width="10" stroke-linecap="round"/>
</svg>
