<svg width="160" height="160" viewBox="0 0 160 160" fill="none" xmlns="http://www.w3.org/2000/svg">
<path d="M80.0146 0.88351C85.1049 0.834874 85.1049 1.03915 85.1049 1.39905C85.1049 1.77842 85.1244 2.28423 88.9008 2.66359C92.7064 2.98459 96.6969 2.5955 100.678 2.09941C105.641 1.31151 110.615 0.387421 115.803 0.260967C120.99 0.134512 120.971 1.42824 120.971 2.90678C120.971 4.19077 120.99 5.54286 124.699 5.99031C128.319 6.51558 132.222 5.31913 136.028 4.10323C140.651 2.58578 145.264 0.88351 149.274 1.94378C152.729 3.54877 151.834 6.83658 150.812 10.4065C149.887 13.4997 149.002 16.6514 150.384 19.4139C151.581 22.371 153.615 22.1473 155.552 21.943C157.83 21.6901 159.844 21.4663 160 26.3786C160 31.4368 158.54 36.4171 157.265 41.3294C156.301 45.3273 155.474 49.296 155.756 53.1674C156.126 56.961 157.022 56.9902 157.839 57.0291C158.706 57.0583 159.426 57.0583 159.299 62.2429C159.231 67.3692 158.92 72.3106 158.754 77.2034C158.725 81.1721 158.803 85.1311 159.221 88.8566C159.241 89.9558 159.241 91.0355 159.251 92.0861C158.482 87.0085 158.355 82.0865 158.355 77.184C158.472 73.2347 158.706 69.2563 158.579 65.5015C158.53 61.6593 157.907 61.6398 157.207 61.6107C156.185 61.6107 155.026 61.5426 154.345 56.4066C153.722 51.2025 154.715 46.2416 155.834 41.3099C156.876 37.3217 158.014 33.3433 157.839 29.647C157.567 26.009 155.971 26.1062 154.209 26.2424C151.805 26.4953 149.265 26.758 147.62 22.5655C145.459 18.8886 146.53 14.9783 147.474 11.3306C148.116 8.62639 148.836 5.94167 146.111 4.76468C143.23 3.75305 139.532 5.05649 135.784 6.30158C131.142 7.67312 126.373 9.05439 121.467 8.14003C116.416 7.3424 116.416 5.58177 116.416 4.01568C116.396 2.84841 116.387 1.77842 112.562 1.72978C108.717 1.66169 104.736 2.37178 100.765 2.94568C95.8014 3.5585 90.8474 4.01568 85.6889 3.3445C80.5694 2.62469 80.5499 1.97296 80.5986 1.46714C80.5694 1.17533 80.5499 0.990509 76.793 0.873782C77.8441 0.873782 78.9537 0.893237 80.0438 0.873782L80.0146 0.88351ZM0.817568 67.9139C1.55727 72.9818 1.6838 77.9135 1.69353 82.8258C1.54754 86.775 1.35288 90.734 1.45021 94.5276C1.51834 98.3407 2.12178 98.3504 2.82256 98.3991C3.83478 98.3991 5.01247 98.4283 5.67431 103.603C6.31669 108.788 5.30446 113.749 4.20464 118.68C3.19241 122.63 2.04392 126.637 2.21911 130.334C2.47217 133.981 4.07811 133.884 5.83977 133.758C8.22434 133.514 10.7841 133.232 12.429 137.425C14.5605 141.141 13.4801 145.041 12.5263 148.708C11.8742 151.432 11.1637 154.097 13.8695 155.284C16.7504 156.276 20.4781 154.963 24.2059 153.747C28.829 152.356 33.5884 150.994 38.5328 151.87C43.6036 152.658 43.5842 154.428 43.5744 156.014C43.5939 157.181 43.5939 158.241 47.4189 158.299C51.244 158.368 55.2637 157.657 59.2445 157.054C64.2083 156.461 69.1526 156.014 74.3208 156.656C79.4403 157.395 79.4209 158.066 79.4404 158.513C79.4404 158.834 79.4209 159.01 83.1875 159.136C82.1364 159.136 81.056 159.116 80.0243 159.116C74.9048 159.165 74.8561 158.971 74.8659 158.601C74.8853 158.202 74.8659 157.735 71.0895 157.356C67.2644 157.015 63.2934 157.405 59.2834 157.92C54.3391 158.708 49.4239 159.613 44.2265 159.749C39.0583 159.875 38.9902 158.591 39.0097 157.142C39.0097 155.858 39.0097 154.486 35.3111 154.019C31.6808 153.523 27.7876 154.691 23.9528 155.936C19.3296 157.453 14.7844 159.107 10.7549 158.066C7.30945 156.451 8.19515 153.163 9.20737 149.613C10.1515 146.51 11.0274 143.368 9.65509 140.586C8.45794 137.629 6.42375 137.833 4.51609 138.038C2.22885 138.31 0.223858 138.485 0.0875966 133.573C0.0875966 128.515 1.54754 123.573 2.81282 118.671C3.75692 114.673 4.60369 110.685 4.2825 106.842C3.94185 103.02 3.03668 103 2.23858 102.981C1.37235 102.932 0.652108 102.883 0.778636 97.7376C0.846767 92.6016 1.15822 87.6991 1.32368 82.8355C1.34315 78.8376 1.25555 74.8981 0.875966 71.1336C0.8565 70.0636 0.846767 68.9936 0.846767 67.9042L0.817568 67.9139ZM0.642375 58.0213C2.03419 63.0989 2.5111 68.0404 2.86149 72.9818C2.95882 76.9505 2.98802 80.89 3.55253 84.6837C4.09757 88.4773 4.97354 88.5065 5.91763 88.5551C7.21212 88.5259 8.68179 88.5259 9.98601 93.7105C11.2805 98.8854 10.6284 103.837 9.82055 108.788C9.05165 112.737 8.15621 116.745 8.79859 120.46C9.49936 124.108 11.3389 124.03 13.3244 123.933C15.9815 123.69 18.7943 123.466 20.9453 127.795C23.5245 131.715 22.6291 135.752 21.8213 139.574C21.247 142.444 20.6728 145.226 23.5051 146.743C26.5028 148.105 30.2208 147.035 34.0167 146.024C38.6885 144.905 43.4576 143.845 48.4506 145.333C53.502 146.753 53.4728 148.806 53.4728 150.693C53.4728 152.103 53.4728 153.416 57.2979 153.942C61.1229 154.486 65.1037 154.039 69.104 153.689C74.0678 153.416 79.0413 153.309 84.19 154.613C89.329 155.975 89.2804 156.918 89.2609 157.667C89.2414 158.212 89.2414 158.64 93.0178 159.233C91.918 159.214 90.8376 159.204 89.7865 159.204C84.6767 158.611 84.6669 158.134 84.6669 157.473C84.6961 156.821 84.6961 156.111 80.9198 155.265C77.0947 154.467 73.1139 154.574 69.1137 154.837C64.1888 155.284 59.2445 155.877 54.0568 155.381C48.8886 154.856 48.8594 153.28 48.8594 151.539C48.8789 150.002 48.8886 148.387 45.1804 147.454C41.5305 146.491 37.6081 147.434 33.7733 148.426C29.1015 149.71 24.5076 151.072 20.3516 149.525C16.7017 147.473 17.4512 144.039 18.3174 140.304C19.1058 137.123 19.8552 133.874 18.1422 130.937C16.5947 127.882 14.3658 128.038 12.2051 128.233C9.66482 128.476 7.38731 128.602 6.65734 123.67C6.01496 118.612 7.15372 113.671 8.11728 108.759C8.80832 104.79 9.38257 100.792 8.58446 96.9594C7.80583 93.1172 6.64761 93.1366 5.57698 93.1172C4.42849 93.088 3.3968 93.0491 2.89069 87.8839C2.31644 82.7674 2.32618 77.8454 2.17045 72.9623C1.94659 68.9936 1.57674 65.0055 0.729971 61.2605C0.700773 60.2002 0.681307 59.0718 0.652108 57.9921L0.642375 58.0213ZM0.418517 48.0217C2.43324 53.1285 3.23134 58.0894 3.87371 63.0211C4.2533 67.0093 4.57449 70.9877 5.61591 74.7813C6.63787 78.575 7.72796 78.575 8.91538 78.575C10.5505 78.575 12.3122 78.575 14.2782 83.7498C16.2248 88.9345 15.8939 93.8759 15.3781 98.8368C14.8622 102.806 14.2393 106.823 15.3489 110.548C16.5168 114.216 18.5802 114.138 20.7701 114.05C23.7095 113.856 26.7851 113.681 29.4616 118.145C32.4691 122.27 31.7781 126.423 31.1065 130.402C30.6588 133.407 30.1624 136.355 33.1407 138.213C36.2455 139.944 40.0219 139.078 43.8275 138.29C48.5674 137.464 53.3658 136.676 58.388 138.787C63.4588 140.868 63.4588 143.222 63.4102 145.411C63.3907 147.074 63.3907 148.592 67.206 149.623C71.0116 150.644 75.0508 150.469 79.051 150.391C84.0246 150.44 89.0176 150.644 94.176 152.599C99.2956 154.613 99.2858 155.848 99.2469 156.908C99.2274 157.696 99.1982 158.329 102.945 159.408C101.875 159.379 100.785 159.36 99.7141 159.33C94.5946 158.115 94.5946 157.346 94.6432 156.403C94.6724 155.556 94.6919 154.593 90.896 153.28C87.0905 151.986 83.0999 151.841 79.0705 151.821C74.097 151.928 69.1624 152.191 63.9844 151.033C58.8454 149.866 58.7968 147.989 58.8357 145.946C58.8552 144.205 58.8649 142.327 55.1372 140.936C51.4581 139.526 47.5357 140.216 43.662 140.985C38.9415 141.948 34.3184 143.047 30.0164 141.014C26.1622 138.534 26.7656 134.915 27.4859 131.044C28.1282 127.727 28.7219 124.39 26.6683 121.316C24.7606 118.136 22.2982 118.272 19.9526 118.437C17.1397 118.632 14.5702 118.778 13.2173 113.817C11.9521 108.739 12.7696 103.769 13.4217 98.8562C13.8403 94.8584 14.1614 90.8507 12.8767 87.0279C11.5919 83.2051 10.1904 83.2149 8.90565 83.2149C7.43598 83.1954 6.14149 83.1954 4.97354 78.0594C3.75692 72.9429 3.43573 67.9723 2.93935 63.06C2.44297 59.0427 1.82006 55.0545 0.506113 51.2998C0.476915 50.2103 0.457449 49.1403 0.42825 48.0217H0.418517ZM0.145994 38.0221C2.82256 43.1094 3.90291 48.0703 4.89568 53.0701C5.53805 57.0583 6.0831 61.0367 7.60144 64.8304C9.10031 68.624 10.4629 68.624 11.9034 68.6532C13.8111 68.5851 15.9036 68.6045 18.5315 73.7892C21.1205 78.9543 21.0913 83.9055 20.9161 88.915C20.6728 92.8643 20.2932 96.8719 21.8602 100.617C23.4759 104.313 25.7923 104.265 28.2256 104.206C31.4374 104.012 34.7856 103.885 37.9585 108.515C41.4137 112.854 40.9173 117.124 40.4209 121.287C40.0706 124.439 39.652 127.542 42.7861 129.74C46.0174 131.822 49.823 131.18 53.687 130.625C58.4561 130.052 63.2739 129.555 68.3253 132.308C73.4157 134.993 73.4157 137.687 73.4157 140.187C73.367 142.094 73.367 143.884 77.1726 145.391C80.9782 146.899 84.9979 146.977 89.0273 147.152C94.0008 147.522 98.9647 148.027 104.113 150.654C109.252 153.309 109.252 154.866 109.233 156.228C109.184 157.249 109.155 158.134 112.931 159.681C111.832 159.651 110.742 159.632 109.651 159.603C104.551 157.716 104.561 156.646 104.6 155.42C104.619 154.302 104.649 153.134 100.872 151.306C97.0667 149.525 93.0276 149.127 89.0176 148.854C84.0732 148.65 79.0997 148.601 73.912 146.792C68.7633 144.973 68.773 142.775 68.7633 140.44C68.7925 138.407 68.8314 136.296 65.0842 134.468C61.3663 132.581 57.4147 133.009 53.5118 133.553C48.7718 134.244 44.0708 135.09 39.6228 132.532C35.5642 129.624 36.0898 125.791 36.6154 121.774C37.0923 118.369 37.5595 114.926 35.1749 111.706C32.8876 108.408 30.2111 108.486 27.6319 108.622C24.566 108.778 21.7142 108.875 19.7287 103.905C17.821 98.8173 18.3369 93.837 18.6581 88.9053C18.8138 84.9171 18.9111 80.9192 17.1397 77.0964C15.3586 73.2833 13.7137 73.2736 12.1662 73.2736C10.4045 73.2736 8.78886 73.2736 6.97853 68.1182C5.1098 62.9822 4.46742 58.031 3.64986 53.0896C2.91015 49.0917 2.03419 45.123 0.223858 41.3585C0.194659 40.2691 0.175193 39.131 0.145994 38.0416V38.0221ZM0.0194659 28.149C3.32867 33.2363 4.71075 38.1875 5.9371 43.1094C6.81307 47.0782 7.60144 51.0663 9.59669 54.8697C11.5822 58.6633 13.1979 58.6633 14.9109 58.6925C17.1689 58.6925 19.5827 58.7217 22.8627 63.8771C26.1135 69.052 26.3666 73.9934 26.4736 78.9349C26.4542 82.9036 26.3276 86.9015 28.3618 90.6951C30.4447 94.4109 32.985 94.3428 35.6615 94.3136C39.1654 94.2066 42.7861 94.0899 46.4651 98.8562C50.368 103.399 50.0176 107.805 49.677 112.105C49.4239 115.422 49.1709 118.671 52.4411 121.2C55.799 123.632 59.6143 123.213 63.4686 122.863C68.2864 122.562 73.1237 122.348 78.1945 125.713C83.3141 129.03 83.3335 132.007 83.3043 134.847C83.3238 137.026 83.3335 139.088 87.1586 141.072C90.9642 143.057 94.9352 143.378 98.9257 143.796C103.899 144.438 108.834 145.255 113.983 148.514C119.122 151.811 119.131 153.698 119.131 155.401C119.161 156.694 119.161 157.881 122.976 159.885C121.857 159.865 120.766 159.856 119.696 159.817C114.576 157.307 114.576 155.916 114.557 154.331C114.576 152.969 114.537 151.5 110.751 149.214C106.926 146.977 102.994 146.335 98.9549 145.819C94.03 145.333 89.0662 144.973 83.898 142.493C78.7493 140.032 78.7298 137.512 78.7104 134.828C78.7396 132.551 78.7104 130.188 74.9632 127.882C71.2355 125.528 67.2936 125.791 63.3615 126.073C58.5924 126.491 53.8719 127.065 49.2779 124.011C44.9857 120.645 45.375 116.628 45.7449 112.455C46.0953 108.963 46.3873 105.383 43.662 102.037C41.0244 98.6131 38.1434 98.7103 35.3209 98.7687C31.963 98.866 28.8193 98.973 26.2303 93.9537C23.69 88.8469 23.8749 83.8374 23.9236 78.9446C23.8457 74.9759 23.6705 70.978 21.4222 67.1357C19.1642 63.3226 17.2468 63.3421 15.4365 63.3129C13.3244 63.2643 11.407 63.2837 8.92512 58.1478C6.41402 53.0118 5.45045 48.0022 4.37983 43.1386C3.38707 39.1505 2.31644 35.1526 0.0486648 31.3881C0.0291989 30.3181 0.0194659 29.2481 0 28.1587L0.0194659 28.149ZM0.399051 18.7719C4.30197 23.8495 5.81057 28.5867 7.25105 33.4114C8.29248 37.3023 9.26577 41.2418 11.7282 45.0354C14.1809 48.8291 16.1178 48.8777 18.1422 48.9555C20.7507 49.0042 23.6024 49.1501 27.4859 54.2666C31.3596 59.3831 31.8073 64.237 32.1869 69.1201C32.3621 73.0596 32.4789 77.0283 34.9608 80.8219C37.4913 84.5475 40.2847 84.5378 43.2143 84.5183C46.9712 84.4697 50.9131 84.421 55.0593 89.3041C59.3613 94.0121 59.1763 98.5547 58.9914 102.971C58.8454 106.424 58.6897 109.819 62.0962 112.688C65.5709 115.49 69.3959 115.247 73.2794 115.101C78.068 115.052 82.8761 115.052 87.9567 118.992C93.047 122.931 93.1054 126.287 93.1249 129.478C93.1736 131.929 93.2514 134.283 97.0473 136.744C100.853 139.205 104.765 139.72 108.717 140.314C113.564 141.228 118.362 142.201 123.482 146.072C128.592 149.963 128.747 152.317 128.845 154.409C128.942 156.023 129.039 157.531 132.826 159.992C131.726 160.011 130.616 159.992 129.565 159.972C124.416 156.821 124.416 155.08 124.368 153.144C124.27 151.451 124.202 149.691 120.445 146.938C116.64 144.234 112.698 143.397 108.795 142.716C103.88 141.967 98.9355 141.306 93.7673 138.183C88.6283 135.051 88.6185 132.23 88.6185 129.205C88.5504 126.647 88.5504 124.001 84.8129 121.239C81.056 118.486 77.1142 118.486 73.2599 118.564C68.3935 118.758 63.6243 119.06 58.9038 115.49C54.4072 111.696 54.6797 107.504 54.923 103.195C55.1274 99.5663 55.2734 95.9478 52.2465 92.4557C49.2585 88.915 46.1342 88.9345 43.1072 89.0026C39.4477 89.0317 35.9827 89.0804 32.7903 84.0222C29.6174 78.896 29.52 73.9351 29.3059 69.1006C29.0139 65.1514 28.6538 61.2216 25.9481 57.4182C23.2326 53.6246 21.0037 53.5565 18.9111 53.4981C16.4195 53.3814 14.142 53.3717 11.0177 48.2357C7.88369 43.0803 6.64761 38.1583 5.37259 33.353C4.20464 29.433 2.95882 25.5615 0.223858 21.8165C0.253057 20.7952 0.301722 19.7349 0.418517 18.7719H0.399051ZM1.99526 10.6399C6.42375 15.6008 7.80583 19.8905 9.17817 24.3748C10.3169 28.1003 11.3681 31.855 14.2685 35.6292C17.1787 39.3547 19.4854 39.5493 21.8213 39.7438C24.9942 39.9967 28.3521 40.3566 32.7806 45.3662C37.1799 50.3757 37.7055 54.9572 38.1726 59.6555C38.5425 63.4783 38.7955 67.34 41.7057 71.1142C44.6645 74.83 47.7401 74.8786 50.9228 74.9078C55.0009 74.937 59.225 74.9856 63.7606 79.8881C68.3837 84.7031 68.3253 89.2846 68.2767 93.8273C68.2085 97.3972 68.1307 100.928 71.6345 104.119C75.2065 107.222 79.0413 107.173 82.8956 107.192C87.5966 107.29 92.3073 107.416 97.2809 111.881C102.274 116.317 102.449 120.12 102.624 123.719C102.702 126.491 102.819 129.157 106.576 132.084C110.352 134.983 114.177 135.625 117.983 136.355C122.528 137.279 127.005 138.232 131.998 142.629C137.011 147.064 137.458 150.041 137.887 152.706C138.081 154.72 138.305 156.617 142.062 159.525C141.138 159.651 140.155 159.768 139.133 159.797C134.013 156.033 133.818 153.815 133.546 151.383C133.351 149.302 133.127 147.113 129.4 143.961C125.672 140.81 121.925 139.944 118.148 139.127C113.408 138.261 108.639 137.415 103.49 133.67C98.3904 129.906 98.2736 126.705 98.1665 123.272C98.0887 120.422 98.0108 117.464 94.3123 114.293C90.5943 111.122 86.7401 110.976 82.8664 110.918C78.0972 110.899 73.3281 110.996 68.5005 106.93C63.8092 102.718 63.9358 98.3893 64.0526 93.9051C64.1499 90.2087 64.1986 86.5124 60.8699 82.9619C57.5899 79.3629 54.232 79.3434 50.9812 79.3337C47.0102 79.3337 43.2532 79.3142 39.4574 74.2463C35.6615 69.1395 35.3598 64.2954 34.9413 59.5193C34.513 55.6965 34.0264 51.9126 30.8924 48.1676C27.7389 44.4421 25.1499 44.2475 22.7167 44.0822C19.7871 43.8876 17.0716 43.732 13.3244 38.6057C9.56749 33.4698 8.21461 28.7618 6.84227 24.1316C5.59645 20.3866 4.36036 16.7681 1.20689 13.0717C1.45994 12.2741 1.70327 11.4667 1.97579 10.6399H1.99526ZM5.75217 4.63822C10.57 9.37539 11.5627 13.0231 12.682 16.8848C13.4996 20.0656 14.4924 23.5091 17.7918 27.1957C21.0913 30.8629 23.8068 31.1936 26.7364 31.7091C30.4836 32.2538 34.4449 32.8764 39.2627 37.633C44.0611 42.3896 44.4991 46.5821 44.9565 50.8815C45.2485 54.432 45.5599 58.1672 48.8789 61.8441C52.1881 65.5113 55.5654 65.5599 59.0401 65.7058C63.4102 65.8323 67.9068 65.9101 72.7051 70.6959C77.5035 75.4622 77.5035 80.0243 77.5035 84.635C77.5035 88.3119 77.5035 91.9694 81.0755 95.3739C84.6572 98.7687 88.4239 98.8368 92.1321 98.8757C96.6774 99.0411 101.106 99.2162 105.865 104.031C110.615 108.846 110.965 113.087 111.277 117.153C111.579 120.373 111.793 123.408 115.472 126.705C119.151 130.003 122.703 130.674 126.081 131.219C130.207 132.007 134.11 132.736 138.85 137.561C143.6 142.376 144.515 146.024 145.284 149.438C145.985 152.142 146.432 154.516 150.131 157.813C149.303 158.085 148.496 158.338 147.698 158.601C142.675 154.263 142.13 151.432 141.663 148.455C141.021 145.703 140.398 142.901 136.816 139.448C133.244 135.956 129.984 135.265 126.635 134.682C122.168 133.767 117.72 132.921 112.669 128.612C107.656 124.293 107.393 120.606 107.208 116.803C106.936 113.525 106.712 110.179 103.16 106.687C99.5584 103.214 95.928 103.049 92.2489 102.961C87.5479 102.815 82.9053 102.757 78.0096 98.2823C73.221 93.7203 73.221 89.236 73.2599 84.6642C73.2794 80.9387 73.2794 77.2034 69.7561 73.6724C66.2717 70.1025 62.6802 70.0539 59.1472 69.9761C54.923 69.908 50.806 69.8302 46.4943 64.8401C42.1534 59.8014 41.7544 55.142 41.2093 50.5994C40.8687 47.0782 40.4599 43.6055 37.0047 40.0162C33.5203 36.4268 30.4447 36.0475 27.4372 35.5806C24.0599 35.2304 20.8091 34.8413 16.5071 29.8318C12.1759 24.7931 10.9204 20.4255 9.55776 16.1358C8.66233 13.0036 7.7377 9.8812 4.24357 6.34049C4.67182 5.71795 5.11953 5.0954 5.76191 4.65768L5.75217 4.63822ZM12.2927 1.44769C17.3052 5.76658 17.8308 8.60694 18.3077 11.5737C18.9501 14.3266 19.573 17.128 23.145 20.6006C26.7267 24.0538 30.0067 24.7444 33.3256 25.367C37.7736 26.2813 42.2605 27.1276 47.2924 31.4368C52.3146 35.7557 52.5579 39.4228 52.7623 43.2456C53.0349 46.514 53.2587 49.8602 56.821 53.3425C60.4027 56.8151 64.0428 56.9805 67.7024 57.0875C72.4034 57.2334 77.0752 57.282 81.9417 61.776C86.7401 66.3381 86.7303 70.8029 86.7109 75.3942C86.7109 79.11 86.6914 82.8355 90.1953 86.3762C93.6991 89.9461 97.3003 89.9947 100.833 90.0726C105.057 90.1212 109.155 90.199 113.525 95.1891C117.827 100.247 118.265 104.858 118.761 109.449C119.112 112.951 119.511 116.443 122.966 120.032C126.441 123.622 129.526 124.021 132.534 124.488C135.93 124.828 139.191 125.207 143.473 130.236C147.814 135.275 149.06 139.613 150.433 143.903C151.308 147.055 152.243 150.158 155.727 153.728C155.309 154.34 154.861 154.944 154.209 155.41C149.391 150.644 148.379 147.006 147.26 143.154C146.461 139.973 145.469 136.53 142.169 132.843C138.86 129.166 136.154 128.845 133.205 128.33C129.458 127.785 125.506 127.143 120.679 122.406C115.881 117.649 115.443 113.476 114.995 109.118C114.703 105.568 114.382 101.852 111.072 98.1851C107.744 94.5179 104.396 94.4595 100.892 94.3234C96.5022 94.2164 92.0251 94.1191 87.2267 89.343C82.4284 84.5767 82.4284 79.9951 82.3894 75.4039C82.4089 71.727 82.4186 68.0598 78.8564 64.6456C75.2552 61.2507 71.508 61.1924 67.7997 61.1243C63.2545 60.9784 58.826 60.7838 54.1055 55.9689C49.3363 51.1539 48.9859 46.9128 48.6842 42.8274C48.363 39.6271 48.1392 36.6019 44.4796 33.2947C40.7811 29.9971 37.2188 29.3551 33.8707 28.7812C29.7439 28.0128 25.8507 27.2735 21.1205 22.4585C16.3708 17.6435 15.4365 13.9958 14.6676 10.5816C13.9668 7.85794 13.4996 5.49422 9.84002 2.19669C10.6381 1.94378 11.4362 1.68114 12.2733 1.42824L12.2927 1.44769ZM20.8188 0.21233C25.9189 3.9865 26.1135 6.18485 26.386 8.61666C26.5807 10.6983 26.8143 12.9258 30.542 16.0775C34.26 19.2096 38.0169 20.0656 41.7933 20.8924C46.4943 21.7776 51.3024 22.6044 56.4317 26.3689C61.5512 30.1139 61.6485 33.3336 61.775 36.7576C61.8529 39.6076 61.9502 42.5647 65.6488 45.7553C69.3473 48.9458 73.221 49.0333 77.0558 49.1306C81.8249 49.1306 86.6038 49.0722 91.4411 53.1285C96.1421 57.3209 95.9864 61.6593 95.8696 66.1533C95.7917 69.8302 95.7625 73.5265 99.0717 77.0867C102.371 80.676 105.71 80.715 108.99 80.7052C112.922 80.6858 116.698 80.7247 120.523 85.7926C124.3 90.9091 124.621 95.7143 125.02 100.52C125.438 104.381 125.915 108.136 129.039 111.9C132.203 115.616 134.801 115.811 137.244 115.966C140.155 116.142 142.889 116.336 146.637 121.453C150.413 126.569 151.727 131.258 153.119 135.917C154.365 139.662 155.601 143.281 158.764 146.977C158.491 147.813 158.238 148.631 157.995 149.409C153.528 144.448 152.155 140.139 150.793 135.664C149.654 131.939 148.603 128.184 145.693 124.429C142.782 120.655 140.505 120.48 138.159 120.305C134.977 120.052 131.609 119.692 127.171 114.702C122.781 109.673 122.256 105.101 121.779 100.413C121.458 96.5412 121.185 92.6795 118.275 88.9345C115.316 85.2089 112.231 85.1603 109.058 85.1214C104.941 85.0922 100.736 85.0533 96.1908 80.1605C91.5676 75.3455 91.6163 70.764 91.6455 66.2311C91.7136 62.6417 91.8207 59.1108 88.3168 55.9397C84.7643 52.8075 80.8711 52.8659 77.0363 52.8561C72.345 52.7491 67.6148 52.613 62.6802 48.1676C57.6872 43.7223 57.512 39.8897 57.3174 36.2907C57.2103 33.5378 57.113 30.8823 53.3463 27.9641C49.5699 25.046 45.7254 24.3942 41.9588 23.6452C37.394 22.7309 32.9168 21.8068 27.9238 17.3906C22.9114 12.955 22.4539 9.99793 22.0549 7.27431C21.831 5.28995 21.6266 3.40286 17.8989 0.484693C18.8235 0.377693 19.7579 0.241512 20.8091 0.21233H20.8188ZM30.4057 0.0177855C35.5155 3.18887 35.4766 4.90086 35.5739 6.85603C35.6518 8.56803 35.7491 10.3481 39.5255 13.0815C43.3214 15.7856 47.234 16.6027 51.1467 17.3031C56.0229 18.0424 61.0159 18.7135 66.1743 21.8457C71.3425 24.9487 71.3133 27.7793 71.362 30.8045C71.3912 33.3628 71.4399 36.0183 75.1871 38.7906C78.9342 41.5725 82.8566 41.5239 86.7206 41.4655C91.5384 41.271 96.366 40.95 101.057 44.5588C105.573 48.333 105.281 52.5157 105.038 56.8638C104.843 60.4628 104.697 64.13 107.724 67.6026C110.712 71.1336 113.856 71.0753 116.893 71.0266C120.543 70.978 123.978 70.9294 127.229 75.9875C130.402 81.104 130.509 86.0357 130.704 90.9383C130.976 94.8778 131.346 98.8465 134.052 102.65C136.787 106.443 138.996 106.473 141.128 106.541C143.61 106.638 145.897 106.648 149.002 111.823C152.155 116.959 153.382 121.89 154.686 126.696C155.834 130.596 157.09 134.516 159.825 138.3C159.796 139.312 159.747 140.314 159.611 141.296C155.708 136.189 154.189 131.433 152.778 126.637C151.717 122.717 150.763 118.807 148.282 115.013C145.819 111.22 143.892 111.142 141.877 111.093C139.24 110.996 136.388 110.889 132.495 105.763C128.621 100.636 128.173 95.7727 127.803 90.9091C127.609 86.9404 127.55 82.9911 125.039 79.2267C122.499 75.5011 119.676 75.4817 116.766 75.5303C112.97 75.5498 109.067 75.5984 104.911 70.7445C100.61 66.0268 100.794 61.4745 100.979 57.0778C101.106 53.6051 101.281 50.2103 97.8746 47.3505C94.3999 44.5685 90.5457 44.7728 86.6914 44.9382C81.8931 44.9674 77.0752 44.9673 72.0336 41.0181C66.9432 37.098 66.8459 33.7227 66.8459 30.5516C66.7486 28.1198 66.7194 25.7561 62.9138 23.2853C59.1082 20.8243 55.1566 20.3283 51.2635 19.696C46.3873 18.7816 41.5986 17.8381 36.4986 13.9472C31.3888 10.0368 31.1844 7.7023 31.1065 5.59149C31.0287 3.97677 30.9313 2.4885 27.1549 0.00805831C28.1964 -0.0113962 29.2962 0.00805831 30.4155 0.0275128L30.4057 0.0177855ZM40.275 0.183149C45.375 2.71223 45.3458 4.0935 45.375 5.65958C45.3945 7.03112 45.4042 8.50966 49.1806 10.7956C52.9862 13.0328 56.9864 13.6651 60.9769 14.1709C65.8921 14.6865 70.8851 15.0366 76.063 17.5171C81.2117 19.9878 81.202 22.5072 81.2117 25.1724C81.2117 27.4583 81.241 29.8318 84.9881 32.1469C88.7159 34.5008 92.6577 34.2577 96.5411 33.9756C101.33 33.5476 106.089 32.9639 110.654 36.0572C114.956 39.4034 114.576 43.4013 114.187 47.5645C113.856 51.0858 113.564 54.6557 116.28 58.0213C118.937 61.4453 121.837 61.3383 124.63 61.2507C127.969 61.134 131.122 61.0465 133.75 66.0657C136.291 71.1725 136.106 76.1529 136.057 81.0749C136.135 85.063 136.3 89.0901 138.539 92.9226C140.807 96.726 142.695 96.726 144.525 96.726C146.617 96.7552 148.574 96.7454 151.036 101.911C153.547 107.047 154.511 112.007 155.581 116.92C156.574 120.918 157.674 124.906 159.951 128.699C159.971 129.76 159.981 130.839 160 131.919C156.671 126.812 155.28 121.871 154.043 116.939C153.167 112.941 152.399 108.973 150.384 105.179C148.418 101.356 146.773 101.356 145.089 101.356C142.802 101.356 140.388 101.327 137.108 96.1715C133.857 90.9966 133.604 86.0455 133.507 81.0943C133.526 77.0964 133.672 73.0888 131.619 69.3438C129.526 65.6183 126.976 65.6475 124.309 65.7253C120.786 65.8225 117.156 65.9198 113.476 61.1632C109.593 56.6206 109.924 52.185 110.265 47.9244C110.508 44.6074 110.79 41.3488 107.53 38.8197C104.172 36.3685 100.308 36.8062 96.4925 37.1564C91.6455 37.4482 86.779 37.6719 81.7373 34.2868C76.6178 30.9601 76.6178 27.9641 76.6665 25.1335C76.6178 22.9741 76.5983 20.9216 72.8122 18.9275C68.9872 16.9432 64.9869 16.6416 61.0159 16.2234C56.0229 15.5522 51.0785 14.7351 45.9298 11.4667C40.7908 8.16921 40.7811 6.29185 40.8103 4.57986C40.7908 3.28614 40.7908 2.09941 37.0047 0.115058C38.0753 0.134512 39.1654 0.163694 40.2847 0.183149H40.275ZM50.3096 0.436057C55.3805 2.32314 55.3318 3.38341 55.3318 4.6285C55.3026 5.69849 55.2832 6.9144 59.079 8.72366C62.8749 10.5037 66.9043 10.8637 70.924 11.1749C75.8684 11.3695 80.8808 11.4278 86.049 13.2566C91.2172 15.0658 91.1686 17.2545 91.1686 19.6279C91.1491 21.6317 91.1686 23.7231 94.8963 25.6004C98.5948 27.4778 102.546 27.0109 106.43 26.5148C111.15 25.8144 115.919 24.9681 120.319 27.5361C124.416 30.4543 123.871 34.2382 123.346 38.275C122.849 41.6795 122.421 45.1424 124.815 48.3427C127.093 51.6597 129.789 51.5235 132.368 51.3971C135.405 51.2511 138.286 51.1441 140.291 56.1342C142.179 61.241 141.683 66.1727 141.342 71.1142C141.167 75.1315 141.099 79.1294 142.86 82.9619C144.641 86.7847 146.286 86.7847 147.824 86.7653C149.595 86.7847 151.231 86.7847 153.021 91.9499C154.89 97.0859 155.552 102.018 156.35 106.93C157.119 110.967 157.966 114.965 159.786 118.729C159.815 119.867 159.854 120.937 159.883 122.027C157.197 116.92 156.078 111.959 155.134 106.969C154.481 102.981 153.936 99.0022 152.399 95.2183C150.9 91.4149 149.547 91.3955 148.106 91.3955C146.16 91.4441 144.087 91.4246 141.468 86.24C138.879 81.0651 138.889 76.114 139.064 71.1433C139.337 67.126 139.717 63.1378 138.15 59.3831C136.514 55.7062 134.198 55.7549 131.745 55.8521C128.533 56.0078 125.205 56.1439 122.012 51.5138C118.538 47.1754 119.053 42.9052 119.53 38.7711C119.881 35.6 120.28 32.497 117.165 30.2987C113.914 28.2365 110.089 28.8785 106.264 29.433C101.476 29.9971 96.6287 30.4932 91.626 27.721C86.5162 25.0168 86.5162 22.3612 86.5551 19.8419C86.5357 17.9548 86.5746 16.1455 82.7496 14.6573C78.944 13.1496 74.9048 13.0717 70.924 12.8772C65.931 12.527 60.9575 11.992 55.799 9.37539C50.6503 6.71985 50.66 5.18295 50.7281 3.79195C50.7281 2.77059 50.7768 1.87569 47.0004 0.348512C48.0711 0.377693 49.1611 0.416602 50.2999 0.42633L50.3096 0.436057ZM60.2664 0.679238C65.3568 1.9146 65.3373 2.68305 65.2886 3.60714C65.2886 4.45341 65.2594 5.43586 69.0456 6.73931C72.8511 8.0233 76.8903 8.14976 80.8516 8.19839C85.8252 8.09139 90.7987 7.81903 95.9766 8.9863C101.145 10.1438 101.125 12.0309 101.116 14.0639C101.096 15.844 101.116 17.6824 104.824 19.0929C108.483 20.5131 112.425 19.8127 116.299 19.0443C121 18.0813 125.672 16.9821 129.964 19.0248C133.818 21.5053 133.176 25.1335 132.495 28.9758C131.852 32.2733 131.278 35.6195 133.312 38.6933C135.249 41.8838 137.702 41.7379 140.067 41.5725C142.87 41.3975 145.449 41.2224 146.802 46.2027C148.087 51.2706 147.269 56.2412 146.607 61.1535C146.179 65.1708 145.839 69.1687 147.104 73.011C148.428 76.8046 149.829 76.8046 151.104 76.8143C152.564 76.8435 153.888 76.8338 155.036 81.9892C156.253 87.1057 156.584 92.0569 157.07 96.9886C157.586 100.987 158.17 104.975 159.533 108.72C159.552 109.838 159.581 110.908 159.611 111.998C157.567 106.891 156.759 101.959 156.136 97.0373C155.737 93.0394 155.435 89.0512 154.374 85.277C153.362 81.4542 152.262 81.4542 151.075 81.4737C149.44 81.4931 147.678 81.4542 145.702 76.2891C143.765 71.1044 144.116 66.1435 144.632 61.2118C145.138 57.1945 145.77 53.1966 144.661 49.4613C143.473 45.8136 141.41 45.872 139.22 45.9887C136.242 46.1833 133.186 46.3389 130.519 41.8741C127.492 37.7497 128.183 33.5962 128.855 29.647C129.273 26.6412 129.779 23.6647 126.791 21.8165C123.686 20.0851 119.891 20.9703 116.134 21.7387C111.345 22.585 106.547 23.3534 101.573 21.2232C96.4827 19.1415 96.4828 16.807 96.5509 14.5989C96.5217 12.9647 96.5217 11.4084 92.7064 10.387C88.8813 9.37539 84.8713 9.56993 80.91 9.61857C75.8878 9.56993 70.924 9.37539 65.7753 7.41049C60.6363 5.39695 60.6558 4.16159 60.7142 3.10132C60.6947 2.33287 60.7336 1.66169 56.967 0.60142C58.0376 0.630602 59.1277 0.66951 60.247 0.679238H60.2664ZM70.1746 0.805692C75.2455 1.41851 75.2649 1.9146 75.2649 2.55659C75.2454 3.17914 75.2357 3.89895 79.0121 4.7355C82.808 5.55258 86.8374 5.42613 90.8182 5.18295C95.782 4.7355 100.726 4.14213 105.895 4.66741C111.082 5.16349 111.082 6.76849 111.063 8.50966C111.063 10.0466 111.063 11.6418 114.761 12.5562C118.421 13.5289 122.343 12.5854 126.188 11.5932C130.84 10.3481 135.483 8.94739 139.629 10.5037C143.279 12.5562 142.529 15.9802 141.644 19.6863C140.875 22.8768 140.135 26.1354 141.838 29.0536C143.425 32.1079 145.644 31.9329 147.805 31.7383C150.335 31.4951 152.622 31.3881 153.391 36.3198C154.034 41.378 152.895 46.2903 151.892 51.222C151.221 55.2101 150.647 59.208 151.425 63.06C152.243 66.8731 153.391 66.8731 154.433 66.8731C155.62 66.9023 156.642 66.9509 157.158 72.1355C157.732 77.2618 157.722 82.1351 157.878 87.0182C158.102 91.0161 158.452 95.0043 159.338 98.7492C159.358 99.8679 159.387 100.938 159.406 102.018C158.014 96.9303 157.547 91.9791 157.216 87.0377C157.07 83.0884 157.041 79.1197 156.467 75.3358C155.941 71.513 155.075 71.513 154.131 71.4643C152.807 71.513 151.367 71.4643 150.033 66.3089C148.739 61.1243 149.411 56.1731 150.209 51.2317C151.007 47.2338 151.892 43.2456 151.25 39.5298C150.53 35.9016 148.69 35.9794 146.705 36.0767C144.028 36.3198 141.215 36.5436 139.055 32.2149C136.475 28.2949 137.371 24.2775 138.159 20.4839C138.724 17.6046 139.317 14.8032 136.475 13.276C133.478 11.9142 129.74 13.0036 125.974 13.9958C121.282 15.1145 116.464 16.1845 111.52 14.667C106.449 13.2468 106.478 11.1944 106.498 9.32675C106.498 7.9163 106.478 6.62258 102.673 6.0584C98.8479 5.53313 94.8281 5.99031 90.8668 6.31131C85.8933 6.58367 80.9003 6.7004 75.7418 5.38722C70.6223 4.02541 70.6515 3.10132 70.7002 2.33287C70.6807 1.78814 70.7002 1.36014 66.9432 0.786237C68.0139 0.805692 69.0845 0.805692 70.194 0.805692H70.1746Z" fill="#00d9ff"/>
</svg>
