<svg width="170" height="145" viewBox="0 0 170 145" fill="none" xmlns="http://www.w3.org/2000/svg">
<path d="M5 12.6299C16.5185 6.68788 23.081 1.77598 34.8002 7.63548C37.1583 8.81451 43.2075 11.8881 43.2075 15.5895C43.2075 26.7458 33.0135 39.8261 25.4772 45.787C22.7367 47.9546 11.7425 56.2027 11.7425 47.9605C11.7425 35.2293 21.9196 26.1695 31.637 21.74C40.4973 17.7012 50.8007 15.1271 60.3967 15.1271C65.7622 15.1271 72.8119 13.8203 78.0437 15.5895C84.5224 17.7803 84.7802 19.4846 83.2463 26.4569C80.6572 38.2253 73.112 50.0175 64.8917 57.9492C57.6447 64.9419 50.8764 74.834 41.7924 78.7592C39.4376 79.7766 36.2364 77.4248 33.8845 76.6782C32.3681 76.1967 27.7749 72.9067 27.5166 70.8976C26.5052 63.0312 36.6376 57.0444 41.3762 53.3711C57.1909 41.1117 77.4757 29.5919 96.4816 25.4858C102.196 24.2512 110.21 21.3203 115.877 24.4684C120.665 27.1286 121.352 38.7467 121.703 43.6135C124.045 75.9909 97.4456 95.6576 74.5892 108.355C74.1334 108.609 65.8365 113.932 65.6825 110.853C65.2536 102.276 72.2184 94.6282 77.8356 90.0427C83.6077 85.3309 90.0904 81.5936 95.2329 75.9845C101.308 69.3581 106.647 62.4674 113.879 57.3018C122.492 51.1497 132.904 47.5905 143.096 47.5905C148.078 47.5905 161.407 45.5196 164.572 51.1051C166.566 54.6224 161.009 63.5109 159.828 66.2732C157.303 72.1797 154.27 77.3968 150.921 82.7362C143.704 94.2419 140.617 107.409 132.109 117.974C128.297 122.708 123.291 125.836 118.707 129.535C114.253 133.129 110.158 136.533 104.972 138.784C98.1105 141.764 94.7908 139.244 94.9 131.478C95.0793 118.729 102.65 107.737 112.381 101.881C128.742 92.0342 145.728 86.4786 163.074 80.054" stroke="#00D9FF" stroke-width="10" stroke-linecap="round"/>
</svg>
