<svg width="170" height="158" viewBox="0 0 170 158" fill="none" xmlns="http://www.w3.org/2000/svg">
<path d="M5 152.708C15.9024 152.708 26.8098 153 37.718 153C42.3145 153 46.8115 152.505 51.3837 152.124C60.5452 151.361 69.668 151.248 78.8596 151.248C90.7052 151.248 102.622 151.734 114.452 151.523C118.515 151.451 122.314 150.844 126.255 150.209C129.946 149.614 133.569 149.489 137.282 149.138C144.229 148.482 151.382 148.911 158.377 148.911C160.35 148.911 162.09 148.391 164.035 148.327C165.153 148.29 165.159 148.209 164.758 147.256C163.644 144.607 162.853 141.881 161.504 139.305C160.267 136.943 158.673 134.675 157.256 132.392C155.3 129.242 153.058 126.343 150.423 123.63C147.981 121.115 146.575 118.593 144.729 115.744C142.781 112.736 140.508 109.922 138.529 106.933C135.228 101.946 133.301 96.3945 130.413 91.2099C127.877 86.6576 124.687 82.4444 122.459 77.742C120.091 72.7403 118.628 67.4566 116.458 62.3918C114.724 58.3446 113.15 54.302 111.559 50.2058C110.245 46.819 109.277 43.3593 106.986 40.3888C106.134 39.2837 104.902 38.4965 103.841 37.5654C101.676 35.6661 100.119 33.5823 98.2734 31.3994C93.9656 26.3047 91.2122 20.0858 89.2715 13.9884C88.4401 11.3763 87.3616 7.62597 84.7886 6.08618C84.3297 5.81154 82.6045 4.49543 82.1856 5.20995C81.7868 5.89013 81.6193 6.84774 81.3902 7.57901C80.5339 10.3122 79.3774 12.9197 78.2269 15.5624C75.5006 21.8247 72.9379 28.0184 70.7433 34.4499C68.8829 39.9021 66.2405 45.0668 64.2359 50.4654C61.7916 57.0479 57.8091 63.1356 52.3598 68.1359C48.8304 71.3745 45.2952 74.5755 42.7432 78.5208C39.1404 84.0907 36.3494 90.2135 34.3558 96.4023C33.4138 99.3268 33.2437 102.072 31.4275 104.743C30.0008 106.841 28.3476 108.807 26.8723 110.876C25.0456 113.438 23.3409 116.252 22.1001 119.087C21.7173 119.962 21.0053 120.739 20.4913 121.569C20.2977 121.882 21.7134 121.748 21.8651 121.748C24.1006 121.748 26.336 121.748 28.5714 121.748C36.0068 121.748 43.4422 121.748 50.8775 121.748C68.1468 121.748 85.4094 122.04 102.684 122.04C104.63 122.04 110.827 123.034 111.722 121.326C112.671 119.515 111.776 116.826 111.397 115.063C110.529 111.03 108.627 106.511 106.354 102.958C104.691 100.36 102.324 98.2351 100.678 95.6234C98.1803 91.663 95.8512 87.6263 93.3206 83.6808C91.9403 81.5289 90.5758 79.4687 89.5968 77.1254C89.1524 76.0614 88.4391 73.4135 87.4639 72.6631C86.3117 71.7766 84.8864 65.4399 82.9086 68.0223C79.1691 72.905 74.7581 77.4965 71.6291 82.7397C69.9951 85.4776 68.193 87.9943 66.7485 90.8529C65.2091 93.8991 63.6051 96.8532 61.9402 99.8423C60.7797 101.926 58.8436 104.092 58.0357 106.268" stroke="#00D9FF" stroke-width="10" stroke-linecap="round"/>
</svg>
