<svg width="170" height="171" viewBox="0 0 170 171" fill="none" xmlns="http://www.w3.org/2000/svg">
<path d="M11.539 6.94285C11.539 28.6821 10.7874 50.6321 12.3762 72.3393C12.5322 74.4705 12.9034 76.6808 15.353 75.5744C20.1576 73.4044 26.8368 74.4829 31.9115 74.1417C45.4998 73.228 59.5038 71.7176 72.6566 68.0873C73.3575 67.8939 76.5724 67.9878 76.7963 67.2092C77.4104 65.0733 76.8345 61.6579 76.4707 59.6297C74.0544 46.1582 70.1861 33.5384 65.5402 20.7154C63.9685 16.3774 64.4675 12.5088 64.2844 7.95961C64.183 5.44203 52.5453 7.7276 51.6794 7.77474C42.0877 8.29697 32.5472 9.43854 22.9346 9.43854C20.7078 9.43854 12.6096 10.7343 11.539 8.60664" stroke="red" stroke-width="10" stroke-linecap="round"/>
<path d="M89.402 9.43853C91.5891 29.5403 94.5419 49.8582 96.0998 69.9822C96.2397 71.7885 98.0315 69.4705 99.0301 68.9192C104.27 66.0265 110.305 66.8395 116.379 66.8395C124.565 66.8395 131.849 70.999 140.008 70.999C143.649 70.999 147.314 70.9189 147.171 66.6546C146.813 55.9899 144.459 45.049 142.985 34.4879C141.965 27.1796 140.452 19.5331 138.38 12.4426C138.084 11.4294 137.108 5.69045 135.822 5.32526C133.432 4.64675 129.952 5.27904 127.542 5.27904C114.229 5.27904 101.04 6.11094 87.7275 6.11094" stroke="green" stroke-width="10" stroke-linecap="round"/>
<path d="M17.3997 97.6198C34.6861 96.8545 51.9136 95.956 69.2149 95.956C71.247 95.956 74.3713 96.6579 76.0057 95.1241C76.7713 94.4057 77.655 93.1561 78.8895 93.5065C80.1873 93.875 79.884 108.198 80.0058 109.636C80.8313 119.376 80.1919 129.393 80.1919 139.168C80.1919 143.205 80.1919 147.241 80.1919 151.277C80.1919 154.011 78.5973 156.404 78.5174 159.18C78.4274 162.31 77.6434 162.508 74.7034 162.508C63.4502 162.508 52.2953 164.844 41.0282 165.004C31.3232 165.141 22.2756 163.411 12.6555 161.26C12.1296 161.142 4.65154 159.013 5.02737 158.533C6.93713 156.093 5.67855 149.241 5.67855 146.24C5.67855 134.685 5.67855 123.131 5.67855 111.577C5.67855 107.936 5.01588 103.885 6.51578 100.531C7.07261 99.2866 9.35259 98.2659 9.86469 99.2836" stroke="yellow" stroke-width="10" stroke-linecap="round"/>
<path d="M101.96 90.9648C101.96 113.236 103.634 135.319 103.634 157.517C103.634 160.905 129.338 159.41 133.774 159.134C142.257 158.607 151.609 156.169 159.542 153.542C160.23 153.314 164.605 152.413 164.705 152.063C166.012 147.519 161.852 140.192 161.031 135.887C159.186 126.225 159.265 115.335 155.961 106.216C154.71 102.763 153.031 98.8246 153.031 95.1243C153.031 92.3842 147.678 93.1408 145.496 92.8135C141.483 92.2117 137.038 92.1786 132.984 91.8429C128.384 91.462 124.132 89.7988 119.588 89.3472C112.33 88.6261 90.4795 87.6372 97.7735 87.6372" stroke="#00D9FF" stroke-width="10" stroke-linecap="round"/>
<path d="M11.1391 15.0784C11.0413 13.3574 12.4105 11.9082 14.1343 11.9082H63.1129C64.5477 11.9082 65.7816 12.924 66.0571 14.3321L75.3956 62.053C75.7287 63.7551 74.5533 65.3842 72.833 65.6048L17.6291 72.6825C15.9028 72.9039 14.3511 71.6146 14.2524 69.8771L11.1391 15.0784Z" fill="red"/>
<path d="M99.1408 93.1325C99.0444 91.4346 100.404 90.0052 102.116 90.0052H151.131C152.557 90.0052 153.783 91.0095 154.056 92.4006L163.409 140.197C163.737 141.875 166.108 151.82 164.402 152.039L103.819 159.934C102.104 160.154 102.356 149.729 102.259 148.013L99.1408 93.1325Z" fill="#00D9FF"/>
</svg>
