<svg width="170" height="170" viewBox="0 0 170 170" fill="none" xmlns="http://www.w3.org/2000/svg">
<path d="M30.1784 26.0631C48.2858 15.3389 67.0322 7.63604 87.9145 5.8462C98.297 4.9563 112.061 3.81177 121.932 8.00844C135.048 13.5845 145.703 27.1008 154.701 37.9555C163.088 48.072 165 59.5591 165 72.5513C165 87.1638 163.492 100.474 154.701 112.445C141.998 129.744 122.676 144.43 104.143 154.284C89.8422 161.888 72.7088 167.02 56.6018 164.23C41.4059 161.598 21.5641 151.333 14.0539 136.554C7.96754 124.576 2.95531 111.22 5.83564 97.4171C8.17447 86.2092 14.2972 77.3002 20.6078 68.1187C28.0665 57.2666 39.2656 50.9546 48.9036 42.3881C58.2213 34.1062 67.7887 24.926 78.864 19.2521C90.2297 13.4294 104.74 13.0585 114.442 22.3873C121.704 29.3703 127.026 39.2718 132.855 47.5774C138.912 56.2079 144.699 65.2446 147.939 75.4703C151.896 87.9593 145.954 103.402 138.056 112.661C127.243 125.34 116.203 129.285 100.346 131.689C87.9732 133.564 75.7711 138.38 63.3117 133.959C52.0386 129.958 44.4358 121.429 43.3901 108.931C42.326 96.2138 45.888 89.5236 54.5212 80.5516C62.8207 71.9263 71.6818 63.9256 80.7365 56.2264C86.8397 51.0369 93.673 49.4153 101.334 49.4153C107.254 49.4153 116.041 47.7441 121.464 50.8748C126.429 53.7415 125.914 63.4934 125.625 68.443C124.96 79.8519 120.548 88.6713 113.558 97.1468C107.001 105.096 100.99 112.417 93.0119 118.931C88.5427 122.581 79.8125 116.425 75.5351 113.58C63.472 105.556 66.8492 94.3558 77.9797 87.8492C80.4694 86.3938 83.0936 86.1722 85.4698 84.4436C87.4027 83.0375 90.3708 80.6423 92.4398 79.6867C94.4509 78.7578 94.6909 83.887 95.2486 84.9301C97.013 88.2309 94.4879 89.9468 93.8962 92.7142C93.1991 95.9741 91.2922 95.0578 88.2266 96.1197" stroke="#00D9FF" stroke-width="10" stroke-linecap="round"/>
</svg>
