<svg width="208" height="198" viewBox="0 0 208 198" fill="none" xmlns="http://www.w3.org/2000/svg">
<path d="M5.06152 11.3207C5.06152 44.2904 5.06152 77.26 5.06152 110.23C5.06152 125.965 11.4239 141.129 11.8915 157.028C12.1737 166.622 11.6054 182.777 14.2947 192.19C14.7765 193.876 22.7285 188.699 24.4133 187.763C33.5572 182.683 41.5576 183.003 51.6069 181.945C78.3845 179.126 105.438 179.795 132.555 179.795C141.452 179.795 198.461 188.862 200.729 178.656C204.733 160.637 200.856 137.779 200.856 119.336C200.856 103.625 194.026 91.1667 194.026 75.1941C194.026 53.9843 189.472 32.5842 189.472 11.3207C189.472 2.01289 151.055 6.7674 143.053 6.7674C125.936 6.7674 108.819 6.7674 91.7017 6.7674C63.2427 6.7674 35.5682 11.3207 7.3382 11.3207" stroke="#008000" stroke-width="10" stroke-linecap="round"/>
<path d="M62.1172 13.2437C62.1172 26.6285 62.1154 40.4091 64.3683 53.6448C65.1317 58.1299 66.3679 62.4542 67.7153 66.7959C70.1069 74.5023 70.8566 83.1509 71.9805 91.1433C73.1023 99.1203 72.6525 107.165 73.8466 115.076C75.2439 124.333 74.9129 133.706 74.9129 143.037C74.9129 150.091 75.2447 156.823 75.8607 163.83C76.0097 165.525 74.7732 174.453 76.5123 175.322" stroke="#008000" stroke-width="10" stroke-linecap="round"/>
<path d="M125.029 10.5776C124.276 30.1569 125.029 49.6931 125.029 69.2837C125.029 82.6668 126.403 96.0522 129.561 109.033C131.207 115.803 132.126 122.533 134.211 129.175C136.272 135.74 136.225 141.927 136.225 148.783C136.225 157.855 135.159 166.846 135.159 175.855" stroke="#008000" stroke-width="10" stroke-linecap="round"/>
<path d="M6.66895 74.0229C19.8418 74.0229 32.8974 75.0893 46.0927 75.0893C56.0734 75.0893 66.0578 75.1691 76.0381 75.0893C81.4698 75.0458 86.877 74.5561 92.3289 74.5561C97.7469 74.5561 103.315 74.9348 108.679 74.0229C121.302 71.877 133.754 69.201 146.444 67.3882C150.36 66.8287 154.122 66.0256 158.084 66.0256C160.302 66.0256 162.802 66.3095 164.956 65.7295C167.863 64.9469 170.047 64.3934 173.131 64.4262C176.402 64.461 179.46 65.4925 182.728 65.4925C184.823 65.4925 186.581 64.9593 188.474 64.9593" stroke="#008000" stroke-width="10" stroke-linecap="round"/>
<path d="M9.33496 140.134C16.9276 137.506 26.3696 137.763 34.2747 137.054C40.9644 136.453 47.6996 134.915 54.416 134.803C58.3219 134.738 62.2652 133.946 66.2046 133.707C69.7879 133.49 73.2956 132.411 76.8381 131.87C84.1462 130.756 91.5916 131.027 98.9639 131.071C105.474 131.109 111.887 132.1 118.394 132.137C124.723 132.173 131.052 132.137 137.381 132.137C145.244 132.137 153.159 132.393 161.017 132.107C167.779 131.861 174.455 130.255 181.188 129.59C187.247 128.991 193.578 128.938 199.671 128.938" stroke="#008000" stroke-width="10" stroke-linecap="round"/>
<path d="M29.5947 42.5671C30.4104 42.3859 33.4895 38.3357 33.86 37.5022C34.4454 36.1849 35.4569 35.0138 36.2295 33.7997C36.6096 33.2025 36.5257 30.9888 36.5257 31.6967C36.5257 33.2946 36.9035 34.8586 37.2958 36.4062C38.7127 41.995 39.732 47.5615 40.7909 53.2302C41.1094 54.9349 40.8929 63.6777 42.3904 64.4264" stroke="#FF0000" stroke-width="10" stroke-linecap="round"/>
<path d="M90.374 98.5484C92.2846 96.1602 93.0566 93.5035 95.7056 91.4989C98.7824 89.1704 103.943 86.7831 107.938 88.1815C111.263 89.345 112.729 93.0349 113.537 96.1492C115.138 102.325 109.871 106.412 105.954 110.159C103.693 112.322 100.757 113.971 97.7197 114.661C95.7186 115.116 90.9664 117.644 90.9664 120.141C90.9664 120.911 103.756 119.874 105.243 119.874C107.186 119.874 109.436 120.207 111.167 119.341" stroke="#FF0000" stroke-width="10" stroke-linecap="round"/>
<path d="M163.949 147.065C168.831 146.577 174.779 141.263 178.611 146.799C180.574 149.634 179.244 154.401 177.397 156.958C175.528 159.546 174.783 159.328 178.641 159.328C179.381 159.328 182.716 158.877 183.143 159.624C184.39 161.807 185.202 162.416 184.446 165.222C182.48 172.523 173.157 175.855 166.082 175.855" stroke="#FF0000" stroke-width="10" stroke-linecap="round"/>
<path d="M19.998 22.8403C29.6787 30.7608 39.9394 38.0036 49.588 45.9436C53.7532 49.3712 57.3059 53.4572 61.347 57.0214C65.2823 60.4922 69.723 63.3248 73.8465 66.5589C83.9057 74.4484 93.5097 83.048 104.029 90.3138C109.365 93.9999 114.996 97.4865 119.757 101.925C122.427 104.414 124.622 107.352 127.31 109.833C133.53 115.574 140.144 120.163 145.348 126.983C147.199 129.409 148.533 132.172 150.798 134.269C154.145 137.368 158.424 139.291 162.054 142.03C167.406 146.067 172.071 150.992 177.634 154.766C182.086 157.787 186.67 160.613 191.14 163.593" stroke="#FFFF00" stroke-width="10" stroke-linecap="round"/>
</svg>
