<svg width="181" height="171" viewBox="0 0 181 171" fill="none" xmlns="http://www.w3.org/2000/svg">
<path d="M35.9355 10.8979C35.9355 25.5324 35.9355 40.1669 35.9355 54.8014C35.9355 57.365 36.9448 59.3712 36.9448 61.8663C36.9448 64.4504 43.7274 63.4938 45.5797 63.9409C58.2102 66.9896 69.9671 67.7984 82.9229 67.4173C86.4134 67.3146 88.211 63.5083 91.6699 63.3802C93.0737 63.3282 99.4241 62.9892 99.5198 61.3617C99.974 53.6414 99.5198 45.7681 99.5198 38.0362C99.5198 29.9994 99.5198 21.9626 99.5198 13.9258C99.5198 9.88735 99.4724 10.4764 95.9313 9.83259C81.6598 7.23777 67.3978 5.85156 52.8689 5.85156C47.5213 5.85156 43.6943 8.87939 38.9634 8.87939" stroke="#008000" stroke-width="10" stroke-linecap="round"/>
<path d="M58.1406 35.1204C58.8371 32.3345 67.8943 31.9831 70.0276 29.8498C70.6523 29.2251 70.6578 26.7932 71.2612 25.8127C72.0453 24.5385 73.3284 20.3812 72.2705 21.4392C69.5865 24.1231 70.2519 34.5813 70.2519 38.1483C70.2519 41.5125 70.2519 44.8768 70.2519 48.241" stroke="#008000" stroke-width="10" stroke-linecap="round"/>
<path d="M10.7042 99.7136C21.6542 99.7136 32.738 98.7043 43.5056 98.7043C52.1518 98.7043 69.7382 95.9745 77.092 100.5C82.0149 107.064 82.3627 131.4 82.3627 138.963C82.3627 144.72 82.3627 150.476 82.3627 156.233C82.3627 163.595 66.9454 163.443 61.6165 164.083C48.3548 165.674 34.6805 165.316 21.3016 165.316C17.7155 165.316 8.6005 161.67 6.89137 158.252C5.68865 155.846 6.66708 150.552 6.66708 147.935C6.66708 137.68 5.65781 127.549 5.65781 117.376C5.65781 114.295 4.1647 101.974 6.66708 100.723" stroke="#FFFF00" stroke-width="10" stroke-linecap="round"/>
<path d="M26.8525 121.918C27.5106 115.995 43.2791 110.22 45.2438 117.096C46.8023 122.551 46.3637 129.344 46.0288 135.038C45.8925 137.355 39.4079 138.966 37.7303 140.085C34.4941 142.242 30.8896 143.676 30.8896 148.159C30.8896 148.941 31.1536 146.823 32.3475 146.14C33.6059 145.421 34.804 143.176 35.936 142.103C41.278 137.043 52.2225 139.076 59.1493 139.076" stroke="#FFFF00" stroke-width="10" stroke-linecap="round"/>
<path d="M109.612 80.5377C109.612 86.7615 109.612 92.9854 109.612 99.2092C109.612 104.507 111.631 109.663 111.631 114.853C111.631 122.326 113.001 135.895 116.677 142.328C119.559 147.371 116.35 148.883 122.733 145.692C127.348 143.384 132.89 144.122 137.872 144.122C146.152 144.122 159.423 146.748 167.141 142.888C168.208 142.355 173.992 140.077 174.15 139.524C174.87 137.005 174.161 133.51 174.262 130.945C174.681 120.259 175.215 109.627 175.215 98.9289C175.215 92.3174 174.579 85.8686 174.206 79.5284C173.973 75.5674 136.658 76.5006 132.041 76.5006C129.921 76.5006 121.188 75.1511 119.705 77.0052C118.158 78.9396 113.922 79.5284 111.631 79.5284" stroke="#00D9FF" stroke-width="10" stroke-linecap="round"/>
<path d="M131.816 97.6953C134.686 95.1446 143.103 89.8062 146.451 93.1536C148.349 95.0515 150.142 99.0307 149.983 101.732C149.979 101.81 144.309 106.304 143.479 106.779C140.225 108.638 146.707 104.847 147.46 105.265C150.73 107.081 153.011 104.758 153.011 110.031C153.011 113.489 153.011 116.946 153.011 120.404C153.011 125.136 151.806 125.429 146.956 126.74C144.589 127.38 135.854 132.495 135.854 127.974" stroke="#00D9FF" stroke-width="10" stroke-linecap="round"/>
</svg>
