<svg width="100%" viewBox="0 0 170 78" fill="none" xmlns="http://www.w3.org/2000/svg">
  <path d="M5.79619 14.3873C11.5483 11.3265 16.5642 8.06188 23.173 9.41368C27.2904 10.2559 30.6232 11.8096 34.2868 13.7118C38.8861 16.1 38.9261 22.5267 39.3832 27.0975C39.7445 30.7106 39.5226 35.1989 37.1727 38.1499C30.4526 46.5891 24.4842 54.1679 15.4363 60.2546C11.1267 63.1539 8.52658 66.9135 6.0725 71.2763C5.45345 72.3769 4.31763 73.7212 5.55058 72.136C6.75608 70.586 7.99638 68.8807 9.69523 67.7764C15.4306 64.0484 22.0345 63.8772 27.3483 67.715C31.3936 70.6366 37.3258 71.8597 42.2998 71.8597C44.1027 71.8597 46.5692 71.5182 48.0716 70.4781C49.3516 69.5919 50.6132 67.9913 52.2162 67.9913" stroke="#00D9FF" stroke-width="10" stroke-linecap="round"/>
  <path d="M69.0781 36.7907C74.8136 35.152 80.6137 32.9224 86.6391 32.9224C91.2253 32.9224 96.0594 34.3798 100.577 35.1328" stroke="#00D9FF" stroke-width="10" stroke-linecap="round"/>
  <path d="M83.9988 22.4229C83.4307 29.8082 82.8936 37.0881 82.8936 44.5276" stroke="#00D9FF" stroke-width="10" stroke-linecap="round"/>
  <path d="M118.027 23.6845C122.985 16.4736 127.292 8.15931 136.233 5.23311C139.933 4.02226 144.897 7.83686 147.869 9.59266C150.665 11.2448 152.773 13.6684 155.053 15.9478C156.665 17.5595 156.218 19.8515 156.158 22.0266C156.05 25.8996 153.379 30.3519 151.154 33.3553C148.006 37.6052 146.592 42.1321 143.97 46.5567C142.2 49.5434 140.753 52.4012 138.904 55.3066C137.018 58.2711 134.635 60.5336 132.825 63.5958C131.553 65.7492 130.062 68.1698 129.08 70.3808C128.442 71.8159 126.452 73.3605 128.282 72.3149C133.138 69.54 137.811 63.473 144 63.473C148.284 63.473 151.372 68.7031 155.329 69.5826C158.086 70.1951 162.679 69.1095 165 70.6571" stroke="#00D9FF" stroke-width="10" stroke-linecap="round"/>
</svg>
