<svg width="222" height="204" viewBox="0 0 222 204" fill="none" xmlns="http://www.w3.org/2000/svg">
<path d="M41.4369 12.8582C59.3841 12.8582 77.4242 13.5005 95.3138 11.8364C112.555 10.2325 129.889 8.26971 147.194 7.7956C162.74 7.36966 178.462 5.33398 193.964 5.33398C198.633 5.33398 203.185 6.04513 207.805 6.17001C211.393 6.26697 210.916 6.38596 211.196 9.74632C212.806 29.0639 212.821 48.2426 212.821 67.6176C212.821 77.3292 210.887 87.3301 212.032 97.0641C212.857 104.077 212.303 111.266 213.657 118.197C215.334 126.779 216.165 133.958 216.165 142.813C216.165 155.643 218.386 171.44 212.403 183.407C211.251 185.71 211.759 192.708 210.127 194.089C209.51 194.612 206.85 194.739 206.505 194.786C200.18 195.635 193.82 196.238 187.462 196.783C169.474 198.325 151.393 199.079 133.353 197.944C115.863 196.843 98.3486 193.219 81 191.117C77.7908 190.728 74.2016 190.677 70.9763 191.117C55.6255 193.21 38.3111 195.111 22.7657 195.111C20.3989 195.111 9.06776 196.33 8.00005 194.5C3.70026 187.129 6.99941 177.5 6.99961 165.5C8.00044 155 7.00001 149.281 7.00001 139C7.00001 128.759 5.55002 120.149 6.99986 110C8.7534 97.7252 8.83202 83.8692 8.83202 71.3797C8.83202 58.4988 8.83202 45.6178 8.83202 32.7369C8.83202 29.7745 7.13945 15.5532 10.5041 15.3662C19.1281 14.8871 34.2858 10.0415 42.2729 15.3662" stroke="#00D9FF" stroke-width="10" stroke-linecap="round"/>
<path d="M42.2737 16.2021C41.5461 35.847 40.6016 55.3212 40.6016 75.0023C40.6016 85.9282 39.8526 97.1344 41.2519 107.979C43.0343 121.793 47.0608 135.809 47.2898 149.78C47.4929 162.168 48.1258 174.951 48.1258 187.587" stroke="#00D9FF" stroke-width="10" stroke-linecap="round"/>
<path d="M83.2383 16.2021C83.912 45.1703 85.155 74.3229 87.0468 103.241C87.6651 112.692 88.0089 122.915 89.7407 132.223C90.6132 136.913 89.9265 142.231 89.9265 146.947C89.9265 150.372 88.9455 155.445 90.7625 158.512C92.9874 162.266 92.4345 169.055 92.4345 173.374C92.4345 177.833 92.4345 182.292 92.4345 186.751" stroke="#00D9FF" stroke-width="10" stroke-linecap="round"/>
<path d="M125.039 12.8579C129.428 39.6644 132.651 66.5672 135.861 93.534C137.136 104.246 138.415 114.754 138.415 125.535C138.415 134.43 139.981 143.15 138.833 152.102C137.806 160.119 136.712 167.948 135.443 175.929C134.725 180.438 133.71 186.965 131.727 190.931" stroke="#00D9FF" stroke-width="10" stroke-linecap="round"/>
<path d="M168.513 7.00586C170.63 18.9147 170.61 31.6471 171.439 43.6979C172.472 58.7263 173.529 73.6841 173.529 88.7502C173.529 99.7423 173.529 110.734 173.529 121.727C173.529 131.22 178.359 140 178.359 149.966C178.359 158 179.381 165.999 179.381 174C179.381 183.628 179.381 188 179.381 197.619" stroke="#00D9FF" stroke-width="10" stroke-linecap="round"/>
<path d="M11.3408 50.479C29.0377 49.7983 47.085 45.538 64.614 42.9548C82.3581 40.3398 100.462 41.2827 118.352 41.2827C134.577 41.2827 150.802 41.2827 167.027 41.2827C180.101 41.2827 193.553 41.2827 206.134 41.2827" stroke="#00D9FF" stroke-width="10" stroke-linecap="round"/>
<path d="M210.314 73.8877C188.358 74.6196 166.874 80.3841 144.826 80.5759C135.205 80.6595 125.606 81.4119 116.03 81.4119C107.912 81.4119 100.551 83.4374 92.6211 84.5702C85.9433 85.5242 79.8636 85.5421 73.2069 87.0783C69.5912 87.9126 65.6457 86.8945 61.967 87.4498C51.1061 89.0892 39.7017 88.9361 28.712 88.9361C20.6875 88.9361 1.97692 87.4498 10.0014 87.4498" stroke="#00D9FF" stroke-width="10" stroke-linecap="round"/>
<path d="M8 128.601C25.4199 129.246 35.3767 130.737 52.7704 128.601C63.9022 127.234 74.9189 125.082 86.0254 123.863C96.644 122.698 106.765 120.705 117.516 120.705C129.065 120.705 140.615 120.705 152.164 120.705C163.768 120.705 174.817 124.674 186.116 126.557C191.222 127.408 195.89 129.065 201.118 129.065C205.019 129.065 208.921 129.065 212.822 129.065" stroke="#00D9FF" stroke-width="10" stroke-linecap="round"/>
<path d="M214.493 159.162C187.746 159.623 161.097 161.847 134.328 161.67C126.556 161.619 119.013 159.998 111.245 159.998C97.9073 159.998 84.8316 162.506 71.4872 162.506C50.5895 162.506 29.7516 165.014 8.83203 165.014" stroke="#00D9FF" stroke-width="10" stroke-linecap="round"/>
</svg>
