<svg width="171" height="171" viewBox="0 0 171 171" fill="none" xmlns="http://www.w3.org/2000/svg">
<path d="M5.28906 32.8905C8.45099 32.5166 10.7283 23.0395 13.1658 20.7337C16.019 18.0347 16.8969 6.02354 16.8969 9.84045C16.8969 27.422 17.7261 45.0596 17.7261 62.6944" stroke="#00D9FF" stroke-width="10" stroke-linecap="round"/>
<path d="M54.2088 6.22412C53.9467 10.936 53.3797 15.5435 53.3797 20.2982C53.3797 23.8705 55.2337 20.7324 57.986 20.3853C62.8063 19.7774 70.8822 22.7613 75.3056 24.2633C81.7776 26.461 88.1617 29.017 93.132 33.7186C109.372 49.0804 84.3732 64.3616 69.7781 68.1848C63.1357 69.9248 57.1861 69.0563 51.0765 66.6162C48.6925 65.664 44.2242 64.0239 47.5758 61.9103" stroke="#00D9FF" stroke-width="10" stroke-linecap="round"/>
<path d="M60.8408 6.22377C69.1568 5.92121 77.3878 5.43945 85.7148 5.43945" stroke="#00D9FF" stroke-width="10" stroke-linecap="round"/>
<path d="M133.805 12.4984C137.84 12.3394 141.694 12.0618 145.735 12.5856C148.34 12.923 155.49 13.1248 157.343 15.4178C161.118 20.0874 158.778 27.6031 155.639 31.8012C151.693 37.0786 144.992 42.8499 138.78 45.7881C137.176 46.5465 137.511 46.2239 139.333 46.2239C141.994 46.2239 144.106 46.5672 146.611 47.3568C154.398 49.8123 153.292 58.3856 147.071 62.0844C142.285 64.9305 135.345 68.7706 129.475 68.9689C127.921 69.0214 125.406 68.3876 124.685 69.7532" stroke="#00D9FF" stroke-width="10" stroke-linecap="round"/>
<path d="M38.4552 104.263C30.7932 104.263 26.8565 104.358 20.6288 108.969C17.5403 111.255 15.6578 113.85 13.3969 116.812C10.8136 120.195 13.3293 121.014 17.0359 122.694C23.4228 125.589 30.8162 127.475 37.9024 127.748C40.5698 127.851 44.5423 128.46 46.9307 127.008C48.9522 125.779 55.7935 119.127 52.3662 116.812C51.4852 116.216 45.8393 113.107 46.1016 113.674C47.2176 116.087 48.8019 118.108 49.6484 120.777C53.0393 131.469 49.5649 142.104 44.6737 151.714C41.751 157.456 10.2646 172.279 10.2646 159.949" stroke="#00D9FF" stroke-width="10" stroke-linecap="round"/>
<path d="M79.082 113.675C87.9309 107.696 109.567 94.5066 115.103 111.714C116.976 117.536 113.21 124.936 111.833 130.581C109.464 140.29 105.242 148.006 96.3095 153.675C89.762 157.83 82.234 160.05 75.5812 163.871C72.734 165.506 70.5913 164.655 75.8115 164.655C90.4567 164.655 105.06 165.439 119.709 165.439" stroke="#00D9FF" stroke-width="10" stroke-linecap="round"/>
<path d="M144.583 95.6353C150.946 95.9088 157.271 96.902 163.653 97.2039C168.116 97.415 162.098 103.297 161.488 104.045C151.946 115.746 148.306 131.305 143.846 145.134C142.5 149.309 141.267 153.241 141.267 157.596" stroke="#00D9FF" stroke-width="10" stroke-linecap="round"/>
<path d="M135.463 132.498C140.589 132.498 145.273 131.714 150.387 131.714" stroke="#00D9FF" stroke-width="10" stroke-linecap="round"/>
</svg>
