<svg width="100%" viewBox="0 0 169 171" fill="none" xmlns="http://www.w3.org/2000/svg">
<path d="M9.39653 18.1865C9.39653 56.7042 9.48311 93.6159 6.28908 131.782C5.67943 139.066 5.32859 146.17 5.32859 153.503C5.32859 157.223 4.60575 161.835 5.38509 165.479C5.45403 165.801 16.2042 162.593 17.2499 162.367C30.0956 159.597 42.987 156.732 56.1779 156.732C69.7135 156.732 83.1605 158.728 96.7443 158.728C113.331 158.728 129.926 159.784 146.577 159.784C151.869 159.784 153.708 159.784 159 159.784C162.453 159.784 162.453 139.5 162.453 121C162.453 107 162.453 100 162.453 85C162.453 74.5 162.453 66.8588 162.453 57C162.453 50.6162 163.142 36.825 163.5 30.5C163.667 27.5527 165.222 11 159 11C126.932 11 84.4584 5.50606 52.3359 5.50606C42.4317 5.50606 32.5781 5.31568 22.8433 7.38464C18.1465 8.38288 14.2164 9.73286 9.39653 9.73286" stroke="#00D9FF" stroke-width="10" stroke-linecap="round"/>
<path d="M59.2285 52.0008C66.459 44.4879 73.4521 38.2637 83.6362 38.2637C90.1165 38.2637 95.3294 38.2306 100.925 42.2557C105.734 45.7152 114.159 48.0452 116.406 54.349C118.472 60.1452 118.214 65.3586 118.214 71.5497C118.214 75.8069 115.098 77.3616 111.603 77.3616C105.847 77.3616 97.9878 79.7123 92.8455 82.1167C85.9625 85.335 86.9981 86.752 83.5232 92.6837C82.8226 93.8796 76.2921 108.651 79.5682 106.949" stroke="#00D9FF" stroke-width="10" stroke-linecap="round"/>
<path d="M85.6692 135.421C87.2012 135.244 96.6135 131.253 92.7881 131.253C97.8265 127.763 81.735 131.439 80.0758 132.779C76.1791 135.929 83.6954 135.649 85.6692 135.421Z" stroke="#00D9FF" stroke-width="10" stroke-linecap="round"/>
</svg>
