<svg width="178" height="175" viewBox="0 0 178 175" fill="none" xmlns="http://www.w3.org/2000/svg">
<path d="M7.17989 96.3232C7.17989 115.523 7.22305 133.923 5.63089 152.948C5.327 156.579 5.15211 160.12 5.15211 163.776C5.15211 165.63 4.79179 167.929 5.18028 169.745C5.21464 169.906 10.5734 168.307 11.0946 168.194C17.498 166.813 23.924 165.385 30.4994 165.385C37.2466 165.385 43.9497 166.38 50.7209 166.38C58.9892 166.38 67.2614 166.907 75.5612 166.907C78.1992 166.907 79.1161 166.907 81.754 166.907C83.4752 166.907 83.4752 156.795 83.4752 147.574C83.4752 140.595 83.4752 137.106 83.4752 129.628C83.4752 124.394 83.4752 120.585 83.4752 115.671C83.4752 112.489 83.8187 105.614 83.9972 102.461C84.0804 100.992 84.8558 92.7409 81.754 92.7409C65.7691 92.7409 44.5966 90.0023 28.5843 90.0023C23.6472 90.0023 18.7354 89.9074 13.8828 90.9387C11.5416 91.4363 9.58251 92.1093 7.17989 92.1093" stroke="#00D9FF" stroke-width="10" stroke-linecap="round"/>
<path d="M32.0205 113.179C35.6248 109.434 39.1107 106.332 44.1872 106.332C47.4175 106.332 50.016 106.315 52.8053 108.321C55.2026 110.046 59.402 111.207 60.5221 114.35C61.552 117.239 61.4233 119.838 61.4233 122.924C61.4233 125.046 59.8701 125.821 58.1282 125.821C55.259 125.821 51.3412 126.993 48.7779 128.191C45.3468 129.796 45.8631 130.502 44.1309 133.459C43.7817 134.055 40.5264 141.418 42.1594 140.57" stroke="#00D9FF" stroke-width="10" stroke-linecap="round"/>
<path d="M42.1466 155.388C42.8718 155.234 47.3268 151.769 45.5161 151.769C47.9009 148.739 40.2845 151.93 39.4992 153.094C37.6548 155.828 41.2124 155.586 42.1466 155.388Z" stroke="#00D9FF" stroke-width="10" stroke-linecap="round"/>
<path d="M94 10.5739C95.2066 31.987 94.6968 53.503 94.6968 74.9442C94.6968 77.7569 94.6968 80.5697 94.6968 83.3824C94.6968 85.0071 95.5918 83.8979 96.5551 83.7695C104.24 82.745 112.713 83.7308 120.48 83.7308C128.165 83.7308 134.46 82.2186 141.927 80.789C148.593 79.5128 155.881 80.2471 162.677 80.2471C166.175 80.2471 172.665 81.9261 172.743 77.1505C172.979 62.7481 170.652 48.4623 170.652 34.0305C170.652 30.7404 170.652 27.4503 170.652 24.1601C170.652 19.3176 168.562 14.8268 168.562 10.032C168.562 5.803 159.148 7.78693 156.328 7.78693C147.528 7.78693 138.727 7.78693 129.926 7.78693C122.992 7.78693 116.671 5 109.718 5C106.337 5 102.956 5 99.5747 5C98.3282 5 94.4456 6.19912 94 7.0902" stroke="#00D9FF" stroke-width="10" stroke-linecap="round"/>
</svg>
