<svg width="127" height="166" viewBox="0 0 127 166" fill="none" xmlns="http://www.w3.org/2000/svg">
<path d="M5.66602 27.55C8.56499 27.1877 12.87 18.5648 17.1649 22.8597C23.7265 29.4213 32.9436 16.6737 38.8766 13.479C41.6865 11.966 43.7939 20.8507 43.7939 22.7841C43.7939 23.9857 56.3753 17.0228 59.1509 15.8242C63.8216 13.8073 82.3642 0.815394 85.7043 7.1244C86.6265 8.8664 87.2441 9.0939 87.3686 11.2095C87.5055 13.5381 89.9036 11.8758 91.1511 12.8738C94.7611 15.7618 101.259 11.6834 104.768 14.2356C109.174 17.4396 116.162 11.2095 121.411 11.2095" stroke="#FFFF00" stroke-width="10" stroke-linecap="round"/>
<path d="M6 73.0403C11.2741 71.6019 20.5017 58.4947 20.9788 71.376C21.1528 76.0726 24.7329 72.0425 26.123 70.3169C29.0199 66.7208 35.5122 59.5745 40.6479 59.5745C43.2572 59.5745 42.2513 62.8422 43.5227 64.1136C45.479 66.0699 51.1397 62.2327 53.0546 61.3901C54.1519 60.9074 62.53 55.4049 63.1161 57.4563C63.7549 59.6921 62.8524 61.5179 66.2178 60.4823C72.6217 58.5119 72.4446 63.5084 77.4141 63.5084C89.3881 63.5084 95.8728 57.9853 95.8728 72.9647C95.8728 82.8548 109.072 68.1866 110.852 67.5935" stroke="#FFFF00" stroke-width="10" stroke-linecap="round"/>
<path d="M6 160.347C6.34133 158.982 12.6712 158.287 14.4729 157.019C17.3233 155.013 31.7804 142.704 35.2011 146.125C39.4174 150.341 37.7705 151.822 44.8844 148.773C54.407 144.692 53.727 149.521 59.1067 154.9C62.4165 158.21 71.031 154.9 75.4472 154.9C81.2254 154.9 85.4251 149.454 91.1068 149.454C96.8649 149.454 102.938 145.136 108.733 144.082C112.418 143.413 114.421 147.012 117.66 148.092" stroke="#FFFF00" stroke-width="10" stroke-linecap="round"/>
<path d="M6 113.278C8.3004 111.233 11.8562 109.044 14.7755 107.983C16.299 107.429 18.0084 108.867 19.0119 108.437C25.519 105.648 19.3595 118.574 26.0474 118.574C31.121 118.574 37.4065 117.545 42.0096 115.396C44.185 114.381 47.0055 115.352 48.8938 113.883C52.1645 111.34 56.1996 111.867 59.7875 109.874C63.4565 107.836 67.9798 107.584 71.6646 106.167C76.0239 104.49 79.0558 97.3311 83.6174 99.3585C88.9192 101.715 94.2143 105.465 99.6553 107.529C102.35 108.551 109.781 108.414 110.852 110.555" stroke="#FF0004" stroke-width="10" stroke-linecap="round"/>
</svg>
