<svg width="164" height="161" viewBox="0 0 164 161" fill="none" xmlns="http://www.w3.org/2000/svg">
<path d="M106.741 50.9577C97.997 52.4945 86.0475 53.3927 78.5 58.5C73 61.5 58.044 73.0354 55.6272 77.7914C51.7235 85.4737 49.7324 93.7286 49.7324 102.209C49.7324 112.958 51.1917 120.972 58.612 129.439C63.6193 135.152 67.8489 140.638 74.2071 145.164C81.1215 150.086 89.2304 152.706 97.5625 154.397C110.242 156.971 122.241 155.614 134.387 151.44C144.564 147.942 149.269 140.109 152.631 130.377C156.337 119.647 159.577 106.282 158.115 94.8149C156.019 78.377 148.361 65.3845 133.827 56.7284C124.817 51.3625 117.262 49.1084 106.741 50.9577Z" stroke="#212121" stroke-width="10" stroke-linecap="round"/>
<path d="M85.9961 90.5C86.0935 97.4679 88.792 102.063 96.9276 97.2676C99.137 95.9653 105.702 89.9554 102.636 87.0968C100.559 85.1609 92.7589 80.543 89.727 82.4081C87.8636 83.5545 85.9961 87.7603 85.9961 89.8379" stroke="#212121" stroke-width="5" stroke-linecap="round"/>
<path d="M124.275 80.6047C122.436 79.6633 119.574 75.2303 119.574 72.9585C119.574 65.98 125.551 64.2113 130.655 66.1419C136.713 68.4336 135.566 72.5656 131.999 76.9995C130.8 78.4894 126.665 81.8276 124.275 80.6047Z" stroke="#212121" stroke-width="5" stroke-linecap="round"/>
<path d="M111.999 118.678C118.137 116.7 129.462 117.484 134.499 113.5C136.706 111.754 143.092 102.13 143.999 99.5" stroke="#212121" stroke-width="5" stroke-linecap="round"/>
<path d="M44 65C51.4439 58.0149 51.4439 56.156 56.2833 52.501C61.1228 48.8459 65.59 45.5514 74 41.9326C78.2471 40.105 82.0266 37 87 37" stroke="#212121" stroke-width="5" stroke-linecap="round"/>
<path d="M42.2067 65C37.5437 62.9417 32.8894 60.5676 28.0045 59.0278C26.9708 58.7019 26.0067 58.3516 25.0765 57.8013C24.1968 57.281 23.7285 56.6743 22.9968 56.2549C22.1504 55.7699 21.8285 54.7694 21.0265 54.3353C20.0817 53.8239 17.7743 53.0022 19.8225 53.0022C25.8316 53.0022 28.608 51.0238 34.6397 51.0238C36.2576 51.0238 46.7223 51.6481 47.8419 50.2845C49.0536 48.8088 44.5413 44.7403 43.0744 42.8922C41.6075 40.3049 41.0642 39.4207 40.3459 37.0584C40.0732 36.1617 40.2568 34.692 39.6344 33.9123C39.4329 33.66 39.6968 33.8057 40.0722 33.8057C41.6776 33.8057 43.283 33.8057 44.8884 33.8057C50.2752 33.8057 50.6475 36.2988 55.9099 37.0584C57.6238 37.3058 60.3385 37.8336 61.7776 38.4568C62.5393 38.7866 65.6439 39.0847 66.3422 39.0847C67.536 39.0847 66.3422 17.6079 66.3422 16.0489C66.3422 15.7133 67.5088 17.2002 67.9293 17.5953C70.2453 19.7713 73.2059 21.3633 75.7556 23.2743C78.6133 25.4161 81.3855 27.3612 83.782 29.9556C84.4848 30.7164 86.1353 32.1733 87.0024 33.1125C88.1827 34.391 88.4521 35.1375 89 36.2053" stroke="#212121" stroke-width="5" stroke-linecap="round"/>
<path d="M57.1562 3.22954C59.3834 2.518 66.2603 3.31108 63.2501 7.74115C62.6935 8.56026 61.0436 9.72465 59.7546 9.99008C58.9619 10.1533 55.7326 8.25605 55.3004 7.74115C54.5368 6.83143 55.3001 3.58536 56.7854 3.22954" stroke="#212121" stroke-width="5" stroke-linecap="round"/>
<path d="M27.2715 28.8989C26.4293 27.9713 24.1203 25.1416 25.3565 23.5928C26.5266 21.9434 28.5705 21.6976 30.9376 22.2984C32.4608 22.6851 33.681 23.147 33.9443 24.9513C34.0941 25.9785 33.985 27.6848 33.0765 28.4631C30.4065 30.7504 29.3422 30.1218 27.2964 28.9136L27.2715 28.8989Z" stroke="#212121" stroke-width="5" stroke-linecap="round"/>
<path d="M3 46.6105C3.00062 48.7372 5.10328 51 6.44231 51C9.4955 51 11 49.6561 11 47.543C11 46.5392 8.12315 42.0951 6.03109 43.165C3.46038 44.4798 4.22913 44.359 3 46.6105Z" stroke="#212121" stroke-width="5" stroke-linecap="round"/>
</svg>
