<svg width="305" height="107" viewBox="0 0 305 107" fill="none" xmlns="http://www.w3.org/2000/svg">
<path d="M19.574 55.6366C22.4798 55.0554 25.8746 51.3457 28.2232 49.6411C31.8696 46.9945 35.0136 43.8201 38.1502 40.5987C40.6672 38.0137 45.0132 31.6834 44.2931 27.7231C42.783 19.4175 29.8673 11.9834 22.6209 10.1297C19.2479 9.26685 14.2576 7.22379 10.7773 8.31139C8.08266 9.15346 7.3006 15.4314 6.79667 17.3538C5.25926 23.2187 4.62297 28.0691 5.22408 34.0134C6.13209 42.9926 9.08953 51.2469 10.5316 60.0595C11.8952 68.3929 10.4477 80.0614 18.2962 85.7124C26.6953 91.7597 34.5113 90.9629 44.1949 89.349C47.7533 88.7559 50.5344 88.9255 50.5344 84.8278" stroke="red" stroke-width="10" stroke-linecap="round"/>
<path d="M81.8447 16.3803C81.8447 29.0642 82.0498 41.8125 83.6139 54.4174C84.354 60.3816 85.3831 65.9142 85.3831 71.9125C85.3831 74.3369 85.3831 76.7613 85.3831 79.1857C85.3831 80.8238 83.7449 84.1 85.3831 84.1C86.5828 84.1 88.0516 66.8679 88.2334 65.917C90.1119 56.0911 92.5015 46.3796 94.4255 36.5292C95.9389 28.7803 95.513 16.3084 101.994 10.5814C103.43 9.31215 107.194 5.8805 109.267 5.76533C114.2 5.49129 123.61 9.6209 124.993 14.8077C127.85 25.5208 131.136 36.3453 131.381 47.6356C131.504 53.2652 131.381 58.9094 131.381 64.5409C131.381 67.8153 129.442 79.985 133.151 81.8394" stroke="green" stroke-width="10" stroke-linecap="round"/>
<path d="M205.214 13.2914C201.073 10.1059 193.718 8.37731 188.555 8.03306C182.028 7.59795 169.838 11.5151 164.966 16.3875C160.136 21.2169 165.396 31.6632 168.062 36.2906C171.782 42.7487 174.662 47.074 182.412 46.9056C195.09 46.6299 205.082 35.7247 210.522 25.2333C211.804 22.7611 213.342 20.5502 213.175 17.7143C213.096 16.3622 209.389 16.1315 209.834 18.1075C213.482 34.3236 215.561 48.9492 214.895 65.5801C214.277 81.0351 209.333 92.9086 195.287 100.472C188.09 104.347 181.921 99.0473 176.072 95.6067C171.787 93.086 168.528 91.6469 166.784 86.6626C163.783 78.0886 176.607 71.013 182.117 67.8407C188.472 64.1816 195.984 61.0589 203.445 61.0589" stroke="blue" stroke-width="10" stroke-linecap="round"/>
<path d="M252 48.2299C262.265 48.2299 271.709 46.9461 281.634 44.7407C287.255 43.4916 304.641 43.807 298.883 43.807" stroke="#00D9FF" stroke-width="10" stroke-linecap="round"/>
<path d="M271.461 27C271.461 37.2178 274.338 47.541 278.046 57.0758C279.339 60.4011 279.422 71.2587 279.422 67.6908" stroke="#00D9FF" stroke-width="10" stroke-linecap="round"/>
</svg>
