<svg width="430" height="224" viewBox="0 0 430 224" fill="none" xmlns="http://www.w3.org/2000/svg">
<path d="M169.76 102.091C164.423 92.4208 167.935 80.2543 177.605 74.9166L273.909 21.7602C283.579 16.4225 295.746 19.9348 301.083 29.6052L354.24 125.909C359.578 135.579 356.065 147.746 346.395 153.083L250.091 206.24C240.421 211.578 228.254 208.065 222.917 198.395L169.76 102.091Z" fill="#EFEBFF" fill-opacity="0.4"/>
<path d="M169.76 102.091C164.423 92.4208 167.935 80.2543 177.605 74.9166L273.909 21.7602C283.579 16.4225 295.746 19.9348 301.083 29.6052L354.24 125.909C359.578 135.579 356.065 147.746 346.395 153.083L250.091 206.24C240.421 211.578 228.254 208.065 222.917 198.395L169.76 102.091Z" fill="#EFEBFF" fill-opacity="0.4"/>
<path d="M168.646 41.3185C171.505 30.6492 182.472 24.3175 193.141 27.1764L299.393 55.6465C310.063 58.5053 316.394 69.4721 313.535 80.1414L285.065 186.393C282.206 197.063 271.24 203.394 260.57 200.535L154.319 172.065C143.649 169.206 137.318 158.24 140.176 147.57L168.646 41.3185Z" fill="#EFEBFF" fill-opacity="0.3"/>
<path d="M168.646 41.3185C171.505 30.6492 182.472 24.3175 193.141 27.1764L299.393 55.6465C310.063 58.5053 316.394 69.4721 313.535 80.1414L285.065 186.393C282.206 197.063 271.24 203.394 260.57 200.535L154.319 172.065C143.649 169.206 137.318 158.24 140.176 147.57L168.646 41.3185Z" fill="#EFEBFF" fill-opacity="0.3"/>
<path d="M13.4098 127.412C6.00376 119.217 6.64338 106.57 14.8384 99.1635L96.4496 25.4098C104.645 18.0038 117.292 18.6434 124.698 26.8384L198.451 108.45C205.858 116.645 205.218 129.292 197.023 136.698L115.412 210.451C107.217 217.857 94.5695 217.218 87.1635 209.023L13.4098 127.412Z" fill="#EFEBFF" fill-opacity="0.3"/>
<path d="M13.4098 127.412C6.00376 119.217 6.64338 106.57 14.8384 99.1635L96.4496 25.4098C104.645 18.0038 117.292 18.6434 124.698 26.8384L198.451 108.45C205.858 116.645 205.218 129.292 197.023 136.698L115.412 210.451C107.217 217.857 94.5695 217.218 87.1635 209.023L13.4098 127.412Z" fill="#EFEBFF" fill-opacity="0.3"/>
<path d="M280 20C280 8.9543 288.954 0 300 0H410C421.046 0 430 8.95431 430 20V130C430 141.046 421.046 150 410 150H300C288.954 150 280 141.046 280 130V20Z" fill="#EFEBFF" fill-opacity="0.5"/>
<path d="M280 20C280 8.9543 288.954 0 300 0L410 0C421.046 0 430 8.95431 430 20V130C430 141.046 421.046 150 410 150H300C288.954 150 280 141.046 280 130V20Z" fill="#EFEBFF" fill-opacity="0.5"/>
</svg>
